<svg width="100" height="100" viewBox="0 0 100 100" fill="none" xmlns="http://www.w3.org/2000/svg">
<rect width="100" height="100" rx="50" fill="white"/>
<path d="M57.5 37.5C59.2259 37.5 60.625 38.8991 60.625 40.625V58.4375C60.625 58.9552 60.2052 59.375 59.6875 59.375H41.875C41.875 60.0654 42.4346 60.625 43.125 60.625H59.6875C60.2052 60.625 60.625 61.0448 60.625 61.5625C60.625 62.0802 60.2052 62.5 59.6875 62.5H43.125C41.3991 62.5 40 61.1009 40 59.375V40.625C40 38.8991 41.3991 37.5 43.125 37.5H57.5ZM57.5 39.375H43.125C42.4346 39.375 41.875 39.9346 41.875 40.625V57.5H58.75V40.625C58.75 39.9346 58.1904 39.375 57.5 39.375ZM55 41.25C55.6904 41.25 56.25 41.8096 56.25 42.5V45C56.25 45.6903 55.6904 46.25 55 46.25H45C44.3096 46.25 43.75 45.6903 43.75 45V42.5C43.75 41.8096 44.3096 41.25 45 41.25H55ZM54.375 43.125H45.625V44.375H54.375V43.125Z" fill="#212121"/>
</svg>
