<svg width="100" height="100" viewBox="0 0 100 100" fill="none" xmlns="http://www.w3.org/2000/svg">
<rect width="100" height="100" rx="50" fill="white"/>
<g clip-path="url(#clip0_86_197)">
<path d="M64.6785 57.7511C63.5618 55.6399 59.6837 53.3508 59.513 53.2507C59.0147 52.967 58.4947 52.8169 58.008 52.8169C57.2845 52.8169 56.6922 53.1484 56.3335 53.7512C55.7662 54.4297 55.0627 55.2228 54.8919 55.3457C53.5705 56.2422 52.5361 56.1405 51.3915 54.9959L45.0035 48.6074C43.8662 47.47 43.7616 46.4228 44.652 45.1086C44.7766 44.9368 45.5697 44.2327 46.2482 43.6648C46.6809 43.4073 46.9779 43.0247 47.108 42.5553C47.281 41.9307 47.1536 41.1961 46.7454 40.4803C46.6492 40.3157 44.3589 36.4371 42.2489 35.3209C41.8551 35.1123 41.4113 35.0022 40.9664 35.0022C40.2334 35.0022 39.5438 35.2881 39.0254 35.8058L37.6139 37.2168C35.3815 39.4486 34.5734 41.9786 35.2108 44.736C35.7425 47.034 37.2919 49.4794 39.8168 52.0038L47.9951 60.182C51.1907 63.3777 54.2373 64.9983 57.0503 64.9983C57.0503 64.9983 57.0503 64.9983 57.0509 64.9983C59.1198 64.9983 61.0485 64.119 62.7821 62.3855L64.193 60.9745C65.0506 60.1175 65.2453 58.8217 64.6785 57.7511Z" fill="black"/>
</g>
<defs>
<clipPath id="clip0_86_197">
<rect width="30" height="30" fill="white" transform="translate(35 35)"/>
</clipPath>
</defs>
</svg>
