<svg width="100" height="100" viewBox="0 0 100 100" fill="none" xmlns="http://www.w3.org/2000/svg">
<rect width="100" height="100" rx="50" fill="white"/>
<path d="M58.8889 46.1739V43.0556C58.8889 38.6139 54.9011 35 50 35C45.0989 35 41.1111 38.6139 41.1111 43.0556V46.1739C39.2217 46.4994 37.7778 48.1461 37.7778 50.1278V60.9844C37.7778 63.1983 39.5794 65 41.7939 65H58.2061C60.4205 65 62.2222 63.1983 62.2222 60.9839V50.1272C62.2222 48.1461 60.7783 46.4994 58.8889 46.1739ZM42.2222 43.0556C42.2222 39.2261 45.7111 36.1111 50 36.1111C54.2889 36.1111 57.7778 39.2261 57.7778 43.0556V46.1111H42.2222V43.0556ZM52.2222 56.1111C52.2222 57.3367 51.2255 58.3333 50 58.3333C48.7744 58.3333 47.7778 57.3367 47.7778 56.1111V52.7778C47.7778 51.5522 48.7744 50.5556 50 50.5556C51.2255 50.5556 52.2222 51.5522 52.2222 52.7778V56.1111Z" fill="black"/>
</svg>
