<svg width="100" height="100" viewBox="0 0 100 100" fill="none" xmlns="http://www.w3.org/2000/svg">
<rect width="100" height="100" rx="50" fill="white"/>
<g clip-path="url(#clip0_86_193)">
<path d="M64.2375 49.0004C64.929 48.3263 65.1732 47.337 64.8747 46.4186C64.5763 45.5001 63.7973 44.8433 62.8416 44.7044L55.5499 43.6449C55.5366 43.643 55.5252 43.6346 55.5193 43.6226L52.2585 37.0153C51.8312 36.1493 50.9657 35.6112 49.9999 35.6112C49.0341 35.6112 48.1688 36.1493 47.7415 37.0153L44.4806 43.6226C44.4747 43.6346 44.4633 43.6428 44.4499 43.6449L37.1584 44.7044C36.2027 44.8433 35.4237 45.5001 35.1253 46.4186C34.8268 47.337 35.071 48.3263 35.7625 49.0004L41.0387 54.1435C41.0483 54.1528 41.0528 54.1663 41.0504 54.1795L39.8049 61.4418C39.6416 62.3935 40.0257 63.3375 40.8069 63.9051C41.5882 64.4729 42.6046 64.5461 43.4593 64.0968L49.9811 60.6681C49.9929 60.6618 50.0072 60.6619 50.0191 60.6681L56.5408 64.0968C56.9126 64.2923 57.3149 64.3888 57.7152 64.3888C58.2351 64.3888 58.7518 64.2258 59.1931 63.9051C59.9743 63.3375 60.3583 62.3936 60.1951 61.4416L58.9496 54.1795C58.9472 54.1663 58.9518 54.1528 58.9613 54.1435L64.2375 49.0004ZM56.5072 54.5983L57.7528 61.8604C57.7561 61.8797 57.757 61.8855 57.7365 61.9003C57.716 61.9152 57.7108 61.9124 57.6936 61.9033L51.1717 58.4745C50.438 58.0889 49.5618 58.0889 48.8278 58.4745L42.306 61.9032C42.2888 61.9122 42.2836 61.915 42.2631 61.9002C42.2425 61.8853 42.2435 61.8795 42.2468 61.8604L43.4924 54.5982C43.6325 53.781 43.3617 52.9478 42.768 52.3689L37.492 47.226C37.4781 47.2123 37.4739 47.2083 37.4817 47.1842C37.4896 47.1602 37.4954 47.1593 37.5146 47.1564L44.8062 46.0969C45.6268 45.9777 46.3357 45.4627 46.7026 44.7192L49.9634 38.1118C49.9721 38.0944 49.9746 38.0891 49.9999 38.0891C50.0253 38.0891 50.0279 38.0944 50.0364 38.1118L53.2973 44.7192C53.6643 45.4627 54.3731 45.9778 55.1937 46.0969L62.4852 47.1564C62.5045 47.1593 62.5103 47.1602 62.5181 47.1842C62.526 47.2083 62.5217 47.2125 62.5078 47.226L57.2316 52.369C56.638 52.9478 56.3672 53.7812 56.5072 54.5983Z" fill="black"/>
</g>
<defs>
<clipPath id="clip0_86_193">
<rect width="30" height="30" fill="white" transform="translate(35 35)"/>
</clipPath>
</defs>
</svg>
