<svg width="581" height="504" viewBox="0 0 581 504" fill="none" xmlns="http://www.w3.org/2000/svg">
<g clip-path="url(#clip0_337_2211)">
<path d="M399.368 155.787C399.347 167.175 395.955 178.301 389.621 187.758C383.286 197.215 374.293 204.579 363.779 208.919C353.265 213.258 341.702 214.378 330.552 212.136C319.402 209.895 309.167 204.393 301.14 196.326C293.113 188.26 287.655 177.99 285.456 166.818C283.257 155.645 284.416 144.07 288.787 133.557C293.158 123.044 300.543 114.064 310.01 107.754C319.477 101.444 330.599 98.0873 341.971 98.1075C349.528 98.1013 357.011 99.5905 363.99 102.489C370.97 105.388 377.309 109.64 382.643 115C387.976 120.36 392.2 126.723 395.07 133.722C397.94 140.722 399.401 148.22 399.368 155.787Z" fill="#F2F2F2"/>
<path d="M495.063 189.35L503.147 173.892C495.898 165.125 472.112 154.493 472.112 154.493L439.919 125.15C439.576 123.841 438.895 122.646 437.944 121.684C436.993 120.722 435.806 120.028 434.502 119.672C433.198 119.316 431.823 119.31 430.517 119.655C429.21 120 428.017 120.683 427.057 121.637C426.098 122.59 425.407 123.78 425.052 125.086C424.698 126.392 424.694 127.768 425.04 129.077C425.386 130.385 426.07 131.579 427.023 132.538C427.976 133.498 429.165 134.189 430.47 134.542L465.249 176.312L495.063 189.35Z" fill="#9E616A"/>
<path d="M491.147 188.284L502.562 191.923C510.863 194.57 519.809 194.371 527.984 191.357C530.457 190.435 532.624 188.838 534.238 186.748C535.853 184.658 536.851 182.157 537.121 179.529C537.463 175.963 536.44 172.4 534.259 169.561C532.078 166.722 528.901 164.818 525.372 164.234C514.667 162.472 500.873 161.603 495.952 167.467L495.902 167.527L491.147 188.284Z" fill="#3F3D56"/>
<path d="M409.037 235.607C440.792 235.607 466.535 209.829 466.535 178.03C466.535 146.23 440.792 120.452 409.037 120.452C377.281 120.452 351.538 146.23 351.538 178.03C351.538 209.829 377.281 235.607 409.037 235.607Z" fill="white"/>
<path d="M385.57 155.509C384.781 159.754 383.487 163.89 381.716 167.828C371.573 189.314 400.458 182.311 410.78 182.311C422.066 182.311 432.865 188.254 431.216 161.847C430.511 150.568 422.066 141.384 410.78 141.384C401.14 141.384 387.586 145.675 385.57 155.509Z" fill="#2F2E41"/>
<path d="M409.089 182.306C418.261 182.306 425.695 174.861 425.695 165.677C425.695 156.493 418.261 149.048 409.089 149.048C399.918 149.048 392.484 156.493 392.484 165.677C392.484 174.861 399.918 182.306 409.089 182.306Z" fill="#FFB6B6"/>
<path d="M397.812 148.726C400.722 146.95 404.055 145.989 407.463 145.944C410.871 145.899 414.228 146.771 417.183 148.47C420.139 150.169 422.584 152.632 424.264 155.602C425.944 158.571 426.796 161.938 426.732 165.35C418.27 167.477 409.381 169.105 400.357 165.859L398.226 160.636L396.97 165.863C394.222 166.987 391.467 167.939 388.711 165.852C388.599 162.449 389.38 159.077 390.977 156.072C392.574 153.066 394.931 150.533 397.812 148.726Z" fill="#2F2E41"/>
<path d="M453.744 216.315C443.783 227.665 429.764 234.638 414.713 235.727C399.663 236.816 384.788 231.935 373.3 222.137L378.232 208.357C379.347 205.909 381.105 203.811 383.32 202.289C385.534 200.766 388.121 199.876 390.802 199.713L393.94 199.52L401.421 193.059C401.421 193.059 421.579 192.338 421.28 191.993L433.49 199.347L433.48 199.297L438.28 199.591C440.961 199.753 443.548 200.643 445.763 202.166C447.977 203.689 449.736 205.787 450.85 208.235L453.744 216.315Z" fill="#6C63FF"/>
<path d="M403.992 453.568L402.563 433.669C393.204 428.984 382.845 426.658 372.384 426.892C387.101 438.283 385.922 461.05 396.114 476.631C399.33 481.466 403.591 485.515 408.582 488.476C413.573 491.438 419.165 493.237 424.945 493.741L437.193 500.797C438.594 491.524 437.971 482.057 435.366 473.049C432.762 464.04 428.238 455.705 422.107 448.615C418.628 444.673 414.667 441.184 410.318 438.232C407.64 445.929 403.992 453.568 403.992 453.568Z" fill="#F2F2F2"/>
<path d="M31.6076 100.866L30.1789 80.9674C20.82 76.2825 10.4605 73.9562 1.52588e-05 74.1904C14.7165 85.5814 13.5377 108.348 23.7297 123.929C26.9457 128.764 31.2069 132.813 36.1978 135.775C41.1887 138.736 46.7811 140.536 52.5608 141.039L64.8084 148.095C66.2095 138.822 65.5864 129.355 62.982 120.347C60.3777 111.339 55.854 103.003 49.7227 95.9136C46.2438 91.9707 42.2828 88.4823 37.9333 85.5306C35.2562 93.2273 31.6076 100.866 31.6076 100.866Z" fill="#F2F2F2"/>
<path d="M457.57 494.069L448.016 494.068L443.471 457.169H457.572L457.57 494.069Z" fill="#9E616A"/>
<path d="M460.006 503.343L429.202 503.341V502.951C429.202 499.767 430.465 496.713 432.714 494.462C434.962 492.21 438.012 490.945 441.192 490.945H441.193L446.819 486.67L457.318 490.946L460.007 490.946L460.006 503.343Z" fill="#2F2E41"/>
<path d="M541.769 494.069L532.216 494.068L527.671 457.169H541.771L541.769 494.069Z" fill="#9E616A"/>
<path d="M544.205 503.342L513.401 503.341V502.951C513.401 499.767 514.664 496.713 516.913 494.462C519.161 492.21 522.211 490.945 525.391 490.945H525.392L531.018 486.67L541.517 490.946L544.206 490.946L544.205 503.342Z" fill="#2F2E41"/>
<path d="M527.239 296.577L535.274 373.017C535.274 373.017 545.971 449.557 543.962 460.117C541.953 470.678 544.464 472.187 544.464 472.187L526.134 470.88C526.134 470.88 526.637 464.342 523.623 461.325C520.61 458.307 522.117 449.255 522.117 449.255L486.56 324.739L464.965 390.116C464.965 390.116 461.449 462.031 460.947 463.037C460.445 464.042 458.938 477.621 458.938 477.621H440.357C440.357 477.621 442.868 469.574 439.352 467.06C435.837 464.545 432.823 466.557 435.837 462.031C438.85 457.505 439.854 451.973 438.85 449.458C437.845 446.944 437.845 436.886 437.845 436.886C437.845 436.886 439.352 301.103 447.89 296.577C456.427 292.05 527.239 296.577 527.239 296.577Z" fill="#2F2E41"/>
<path d="M489.185 141.803C500.1 141.803 508.949 132.943 508.949 122.013C508.949 111.083 500.1 102.222 489.185 102.222C478.27 102.222 469.422 111.083 469.422 122.013C469.422 132.943 478.27 141.803 489.185 141.803Z" fill="#9E616A"/>
<path d="M534.069 304.908C495.794 312.823 445.073 299.215 445.073 299.215L458.603 240.482L453.793 179.017C453.205 171.501 457.481 164.455 464.132 161.958L473.315 158.514L480.906 147.631L502.589 148.344L511.257 159.769L518.097 163.403L532.927 171.279L532.992 171.311V171.344L528.338 216.547L525.532 243.803C525.532 243.803 534.056 274.456 532.307 278.522C530.557 282.581 532.078 280.62 532.502 282.79C532.927 284.96 534.226 285.097 534.421 289.372C534.624 293.64 534.069 304.908 534.069 304.908Z" fill="#3F3D56"/>
<path d="M580.338 504H284.684C284.509 503.999 284.341 503.929 284.217 503.805C284.093 503.681 284.024 503.512 284.024 503.337C284.024 503.161 284.093 502.993 284.217 502.869C284.341 502.745 284.509 502.674 284.684 502.674H580.338C580.513 502.674 580.682 502.744 580.806 502.868C580.93 502.992 581 503.161 581 503.337C581 503.513 580.93 503.681 580.806 503.806C580.682 503.93 580.513 504 580.338 504Z" fill="#CCCCCC"/>
<path d="M488.224 140.853C491.69 140.817 495.147 140.485 498.557 139.861C501.933 139.082 509.381 133.314 511.411 129.907C512.919 127.376 513.824 123.46 514.318 120.622C514.985 116.865 514.856 113.009 513.941 109.305C513.025 105.601 511.343 102.131 509.003 99.1195C508.101 97.8579 506.875 96.8638 505.455 96.2425C505.329 96.197 505.2 96.1572 505.07 96.1236C503.012 95.6378 501.146 94.5472 499.711 92.9916C499.432 92.6766 499.132 92.3822 498.811 92.1105C497.201 90.8202 495.31 89.9295 493.291 89.5114C490.029 88.727 485.363 89.7099 479.423 92.4355C476.439 93.8048 473.126 93.4228 470.573 92.937C470.43 92.9131 470.283 92.9272 470.147 92.9778C470.011 93.0285 469.891 93.1139 469.798 93.2255C468.744 94.2689 467.335 94.8741 465.854 94.9195C464.947 94.9829 464.028 96.2657 462.919 97.9362C462.668 98.3153 462.374 98.7579 462.161 99.0279L462.119 98.5208L461.62 99.1007C460.836 100.012 460.295 101.107 460.048 102.284C459.801 103.462 459.855 104.682 460.205 105.833C460.556 106.983 461.191 108.026 462.053 108.864C462.914 109.703 463.974 110.309 465.132 110.627C466.051 110.847 466.99 110.972 467.935 111C468.507 111.037 469.099 111.075 469.668 111.159C471.495 111.484 473.207 112.279 474.636 113.465C476.064 114.65 477.162 116.187 477.821 117.924C477.976 118.326 478.222 118.686 478.538 118.977C478.855 119.269 479.234 119.483 479.647 119.605C480.06 119.726 480.495 119.751 480.918 119.677C481.342 119.603 481.743 119.433 482.091 119.179C482.669 118.704 483.353 118.375 484.085 118.222C484.817 118.069 485.575 118.096 486.295 118.299C486.921 118.627 487.415 119.16 487.695 119.809C488.033 120.532 488.579 121.137 489.263 121.548C491.593 122.676 491.887 127.931 491.174 132.337C490.487 136.585 488.992 139.683 487.539 139.871C486.42 140.017 486.294 140.1 486.218 140.301L486.15 140.48L486.28 140.643C486.905 140.852 487.568 140.924 488.224 140.853Z" fill="#2F2E41"/>
<path d="M409.037 236.328C397.522 236.328 386.266 232.909 376.692 226.503C367.118 220.097 359.656 210.992 355.25 200.34C350.843 189.687 349.69 177.965 351.937 166.656C354.183 155.347 359.728 144.959 367.87 136.806C376.012 128.653 386.385 123.101 397.679 120.851C408.972 118.602 420.678 119.756 431.316 124.169C441.954 128.581 451.046 136.053 457.443 145.641C463.841 155.228 467.255 166.499 467.255 178.03C467.238 193.486 461.098 208.304 450.184 219.234C439.27 230.163 424.472 236.311 409.037 236.328ZM409.037 121.174C397.807 121.174 386.83 124.508 377.492 130.756C368.155 137.003 360.878 145.883 356.581 156.272C352.283 166.661 351.159 178.093 353.35 189.122C355.54 200.151 360.948 210.282 368.889 218.233C376.829 226.185 386.946 231.6 397.96 233.793C408.974 235.987 420.39 234.861 430.765 230.558C441.139 226.255 450.007 218.967 456.246 209.617C462.485 200.267 465.814 189.275 465.814 178.03C465.797 162.956 459.81 148.504 449.166 137.845C438.522 127.186 424.09 121.191 409.037 121.174Z" fill="#3F3D56"/>
<path d="M208.079 115.876C239.834 115.876 265.577 90.0979 265.577 58.2987C265.577 26.4995 239.834 0.721191 208.079 0.721191C176.323 0.721191 150.58 26.4995 150.58 58.2987C150.58 90.0979 176.323 115.876 208.079 115.876Z" fill="white"/>
<path d="M210.74 64.1718C221.095 64.1718 229.489 55.766 229.489 45.3968C229.489 35.0277 221.095 26.6218 210.74 26.6218C200.385 26.6218 191.991 35.0277 191.991 45.3968C191.991 55.766 200.385 64.1718 210.74 64.1718Z" fill="#FFB8B8"/>
<path d="M227.248 32.9937C227.248 32.9937 232.129 23.6487 221.39 22.7991C221.39 22.7991 212.234 14.4823 202.902 21.2787C202.902 21.2787 197.811 21.2787 195.028 27.0469C195.028 27.0469 191.024 25.5264 190.145 29.5955C190.145 29.5955 187.215 38.091 190.145 45.737C193.074 53.383 194.047 54.2325 194.047 54.2325C194.047 54.2325 191.992 44.7443 203.709 43.8947C215.426 43.0452 226.175 35.6948 227.152 45.0399C228.128 54.3849 229.202 50.1634 229.202 50.1634C229.202 50.1634 238.476 36.8167 227.248 32.9937Z" fill="#2F2E41"/>
<path d="M251.32 96.5842C241.358 107.934 227.339 114.907 212.289 115.996C197.238 117.085 182.364 112.204 170.876 102.406L175.808 88.6257C176.922 86.1781 178.681 84.0805 180.895 82.5578C183.11 81.035 185.696 80.1446 188.378 79.982L191.515 79.7891L198.996 73.3279C198.996 73.3279 219.154 72.6071 218.855 72.262L231.066 79.6165L231.055 79.5658L235.855 79.8601C238.537 80.0221 241.124 80.9122 243.338 82.4351C245.553 83.9579 247.312 86.0559 248.426 88.5039L251.32 96.5842Z" fill="#6C63FF"/>
<path d="M208.079 116.597C196.564 116.597 185.308 113.178 175.734 106.772C166.16 100.366 158.698 91.2614 154.292 80.6087C149.885 69.956 148.733 58.2341 150.979 46.9252C153.225 35.6164 158.77 25.2285 166.912 17.0753C175.054 8.9221 185.428 3.36969 196.721 1.12022C208.014 -1.12925 219.72 0.0252561 230.358 4.43775C240.996 8.85023 250.088 16.3225 256.486 25.9097C262.883 35.4969 266.297 46.7683 266.297 58.2987C266.28 73.7551 260.14 88.5734 249.226 99.5027C238.312 110.432 223.514 116.58 208.079 116.597ZM208.079 1.44257C196.849 1.44257 185.872 4.77712 176.535 11.0246C167.198 17.272 159.92 26.1517 155.623 36.5408C151.325 46.9299 150.201 58.3618 152.392 69.3908C154.583 80.4198 159.99 90.5506 167.931 98.5021C175.871 106.454 185.988 111.869 197.002 114.062C208.016 116.256 219.432 115.13 229.807 110.827C240.181 106.524 249.049 99.2363 255.288 89.8863C261.527 80.5364 264.857 69.5438 264.857 58.2987C264.84 43.2248 258.852 28.7731 248.208 18.1142C237.564 7.45534 223.132 1.45967 208.079 1.44257Z" fill="#3F3D56"/>
<path d="M73.8739 206.756C105.629 206.756 131.372 180.978 131.372 149.179C131.372 117.38 105.629 91.6013 73.8739 91.6013C42.1184 91.6013 16.3756 117.38 16.3756 149.179C16.3756 180.978 42.1184 206.756 73.8739 206.756Z" fill="white"/>
<path d="M47.2239 130.449C49.6015 122.862 55.008 115.902 62.4852 113.337C69.9628 110.772 80.9119 114.68 86.5334 120.29C96.8162 130.552 99.3256 165.806 92.2609 176.947C90.8557 176.873 86.0069 176.818 84.5847 176.764L82.5728 170.049V176.698C80.307 176.628 78.0235 176.58 75.7222 176.553C68.0066 176.457 60.6285 173.369 55.1391 167.939C49.6497 162.509 46.4766 155.159 46.2868 147.434C46.1027 140.045 46.287 133.439 47.2239 130.449Z" fill="#2F2E41"/>
<path d="M73.0211 155.596C82.0712 155.596 89.4077 148.249 89.4077 139.187C89.4077 130.124 82.0712 122.778 73.0211 122.778C63.971 122.778 56.6345 130.124 56.6345 139.187C56.6345 148.249 63.971 155.596 73.0211 155.596Z" fill="#9E616A"/>
<path d="M58.8789 124.775L77.7465 115.315C81.6039 117.056 84.926 119.798 87.3683 123.257C89.8106 126.717 91.2842 130.768 91.6362 134.99L92.1064 140.631L84.2056 138.617L83.34 131.404L81.9983 138.054L78.3522 137.125L78.3868 125.927L74.7384 137.117L61.7159 134.121L58.8789 124.775Z" fill="#2F2E41"/>
<path d="M116.541 187.281C106.58 198.631 92.5609 205.604 77.5103 206.693C62.4598 207.782 47.5852 202.901 36.0976 193.103L41.0293 179.323C42.1438 176.875 43.9026 174.778 46.117 173.255C48.3315 171.732 50.9181 170.842 53.5994 170.679L56.7369 170.486L64.2182 164.025C64.2182 164.025 84.376 163.304 84.077 162.959L96.2873 170.313L96.2771 170.263L101.077 170.557C103.759 170.719 106.346 171.609 108.56 173.132C110.775 174.655 112.533 176.753 113.647 179.201L116.541 187.281Z" fill="#6C63FF"/>
<path d="M73.874 207.478C62.3595 207.478 51.1036 204.058 41.5296 197.652C31.9556 191.246 24.4936 182.141 20.0872 171.489C15.6808 160.836 14.5279 149.114 16.7742 137.805C19.0206 126.497 24.5654 116.109 32.7074 107.955C40.8494 99.8022 51.2229 94.2498 62.5162 92.0003C73.8094 89.7509 85.5152 90.9054 96.1533 95.3179C106.791 99.7304 115.884 107.203 122.281 116.79C128.678 126.377 132.092 137.648 132.092 149.179C132.075 164.635 125.936 179.454 115.021 190.383C104.107 201.312 89.3092 207.46 73.874 207.478ZM73.874 92.3227C62.6444 92.3227 51.667 95.6572 42.3299 101.905C32.9928 108.152 25.7155 117.032 21.4181 127.421C17.1207 137.81 15.9963 149.242 18.1871 160.271C20.3779 171.3 25.7855 181.431 33.726 189.382C41.6665 197.334 51.7834 202.749 62.7972 204.943C73.811 207.136 85.2272 206.01 95.602 201.707C105.977 197.404 114.844 190.116 121.083 180.766C127.322 171.416 130.652 160.424 130.652 149.179C130.635 134.105 124.647 119.653 114.003 108.994C103.359 98.3355 88.9272 92.3398 73.874 92.3227V92.3227Z" fill="#3F3D56"/>
<path d="M462.14 207.9L453.435 192.783C442.159 194.218 420.452 208.636 420.452 208.636L378.464 220.14C377.176 219.729 375.803 219.664 374.483 219.953C373.163 220.242 371.942 220.874 370.943 221.786C369.944 222.698 369.203 223.857 368.793 225.147C368.384 226.436 368.321 227.812 368.611 229.133C368.902 230.455 369.534 231.677 370.446 232.676C371.358 233.675 372.516 234.416 373.805 234.825C375.093 235.233 376.466 235.294 377.786 235.002C379.106 234.71 380.325 234.075 381.322 233.161L435.175 226.126L462.14 207.9Z" fill="#9E616A"/>
<path d="M459.143 210.64L478.632 194.294L481.467 181.137C482.014 178.552 481.829 175.865 480.931 173.38C480.033 170.895 478.46 168.711 476.387 167.075C473.564 164.876 470.011 163.832 466.449 164.156C462.886 164.479 459.579 166.145 457.196 168.817C449.976 176.925 441.854 188.124 444.163 195.427L444.187 195.501L459.143 210.64Z" fill="#3F3D56"/>
<path d="M160.439 267.426H87.2123C85.2498 267.424 83.3683 266.642 81.9806 265.252C80.593 263.863 79.8124 261.979 79.8102 260.014V214.85C79.8124 212.885 80.593 211.001 81.9806 209.611C83.3683 208.222 85.2498 207.44 87.2123 207.438H160.439C162.402 207.44 164.283 208.222 165.671 209.611C167.059 211.001 167.839 212.885 167.842 214.85V260.014C167.839 261.979 167.059 263.863 165.671 265.252C164.283 266.642 162.402 267.424 160.439 267.426Z" fill="#E6E6E6"/>
<path d="M131.345 261.608H92.3597C90.5217 261.606 88.7596 260.874 87.4599 259.573C86.1602 258.272 85.4292 256.507 85.427 254.667V220.197C85.4292 218.357 86.1602 216.592 87.4599 215.291C88.7596 213.989 90.5217 213.257 92.3597 213.255H155.292C157.13 213.257 158.892 213.989 160.192 215.291C161.492 216.592 162.223 218.357 162.225 220.197V230.687C162.215 238.885 158.959 246.745 153.17 252.542C147.381 258.339 139.532 261.599 131.345 261.608Z" fill="white"/>
<path d="M149.014 232.13H98.6376C98.2018 232.13 97.7839 231.956 97.4758 231.648C97.1677 231.339 96.9946 230.921 96.9946 230.485C96.9946 230.048 97.1677 229.63 97.4758 229.321C97.7839 229.013 98.2018 228.839 98.6376 228.839H149.014C149.45 228.839 149.868 229.013 150.176 229.321C150.484 229.63 150.657 230.048 150.657 230.485C150.657 230.921 150.484 231.339 150.176 231.648C149.868 231.956 149.45 232.13 149.014 232.13Z" fill="#6C63FF"/>
<path d="M106.518 238.631H98.6375C98.2018 238.631 97.7839 238.458 97.4758 238.149C97.1676 237.84 96.9945 237.422 96.9945 236.986C96.9945 236.549 97.1676 236.131 97.4758 235.822C97.7839 235.514 98.2018 235.34 98.6375 235.34H106.518C106.954 235.34 107.371 235.514 107.68 235.822C107.988 236.131 108.161 236.549 108.161 236.986C108.161 237.422 107.988 237.84 107.68 238.149C107.371 238.458 106.954 238.631 106.518 238.631Z" fill="#6C63FF"/>
<path d="M120.475 245.132H98.6375C98.2024 245.131 97.7854 244.957 97.478 244.649C97.1706 244.34 96.9979 243.922 96.9979 243.487C96.9979 243.051 97.1706 242.633 97.478 242.324C97.7854 242.016 98.2024 241.842 98.6375 241.841H120.475C120.91 241.842 121.327 242.016 121.634 242.324C121.942 242.633 122.114 243.051 122.114 243.487C122.114 243.922 121.942 244.34 121.634 244.649C121.327 244.957 120.91 245.131 120.475 245.132Z" fill="#6C63FF"/>
<path d="M77.2547 222.05C85.8099 222.05 92.7452 215.105 92.7452 206.538C92.7452 197.971 85.8099 191.027 77.2547 191.027C68.6996 191.027 61.7643 197.971 61.7643 206.538C61.7643 215.105 68.6996 222.05 77.2547 222.05Z" fill="#3F3D56"/>
<path d="M350.593 62.5846H277.366C275.403 62.5824 273.522 61.8008 272.134 60.4112C270.747 59.0216 269.966 57.1375 269.964 55.1723V10.009C269.966 8.04384 270.747 6.15978 272.134 4.77017C273.522 3.38057 275.403 2.59891 277.366 2.59668H350.593C352.556 2.5989 354.437 3.38056 355.825 4.77016C357.213 6.15977 357.993 8.04383 357.995 10.009V55.1723C357.993 57.1375 357.213 59.0215 355.825 60.4112C354.437 61.8008 352.556 62.5824 350.593 62.5846Z" fill="#E6E6E6"/>
<path d="M321.499 56.7674H282.513C280.675 56.7654 278.913 56.0334 277.614 54.732C276.314 53.4306 275.583 51.666 275.581 49.8255V15.356C275.583 13.5154 276.314 11.7509 277.614 10.4495C278.913 9.14811 280.675 8.41609 282.513 8.41406H345.446C347.284 8.41611 349.046 9.14814 350.346 10.4496C351.645 11.751 352.376 13.5155 352.378 15.356V25.8457C352.369 34.0439 349.113 41.9036 343.324 47.7005C337.535 53.4974 329.686 56.7582 321.499 56.7674Z" fill="white"/>
<path d="M339.168 27.2887H288.791C288.355 27.2887 287.938 27.1154 287.629 26.8069C287.321 26.4983 287.148 26.0798 287.148 25.6435C287.148 25.2072 287.321 24.7887 287.629 24.4802C287.938 24.1716 288.355 23.9983 288.791 23.9983H339.168C339.604 23.9983 340.022 24.1716 340.33 24.4802C340.638 24.7887 340.811 25.2072 340.811 25.6435C340.811 26.0798 340.638 26.4983 340.33 26.8069C340.022 27.1154 339.604 27.2887 339.168 27.2887Z" fill="#6C63FF"/>
<path d="M296.671 33.7898H288.791C288.355 33.7898 287.938 33.6165 287.629 33.308C287.321 32.9994 287.148 32.5809 287.148 32.1446C287.148 31.7082 287.321 31.2897 287.629 30.9812C287.938 30.6726 288.355 30.4993 288.791 30.4993H296.671C297.107 30.4993 297.525 30.6726 297.833 30.9812C298.141 31.2897 298.314 31.7082 298.314 32.1446C298.314 32.5809 298.141 32.9994 297.833 33.308C297.525 33.6165 297.107 33.7898 296.671 33.7898Z" fill="#6C63FF"/>
<path d="M310.628 40.2908H288.791C288.356 40.2899 287.939 40.1162 287.632 39.8077C287.324 39.4993 287.152 39.0813 287.152 38.6455C287.152 38.2098 287.324 37.7918 287.632 37.4834C287.939 37.1749 288.356 37.0012 288.791 37.0002H310.628C311.064 37.0002 311.482 37.1736 311.79 37.4821C312.098 37.7907 312.271 38.2092 312.271 38.6455C312.271 39.0819 312.098 39.5004 311.79 39.8089C311.482 40.1175 311.064 40.2908 310.628 40.2908Z" fill="#6C63FF"/>
<path d="M267.408 71.3043C275.964 71.3043 282.899 64.3595 282.899 55.7926C282.899 47.2256 275.964 40.2808 267.408 40.2808C258.853 40.2808 251.918 47.2256 251.918 55.7926C251.918 64.3595 258.853 71.3043 267.408 71.3043Z" fill="#3F3D56"/>
</g>
<defs>
<clipPath id="clip0_337_2211">
<rect width="581" height="504" fill="white"/>
</clipPath>
</defs>
</svg>
