<svg width="150" height="50" viewBox="0 0 150 50" fill="none" xmlns="http://www.w3.org/2000/svg">
<g clip-path="url(#clip0_339_2248)">
<path fill-rule="evenodd" clip-rule="evenodd" d="M23.6088 45.573C23.0123 46.4826 22.6024 47.1028 22.6024 47.1028C22.6024 47.1028 21.5065 48.8984 19.8107 48.8984C18.1149 48.8984 17.009 48.4562 15.35 44.882C14.0562 42.0941 9.75652 33.7691 7.9278 30.2414C8.74735 29.1117 10.537 28.9926 11.923 30.8202C13.6552 33.1041 19.1117 40.3635 19.1117 40.3635C19.1117 40.3635 21.3606 43.9746 23.3513 45.4116C23.4338 45.4711 23.5197 45.5249 23.6088 45.573Z" fill="url(#paint0_linear_339_2248)"/>
<path d="M82.0097 39.8427C80.9686 39.8427 79.9636 39.7155 78.9951 39.4613C78.0387 39.1949 77.2578 38.856 76.6525 38.4443L77.8329 35.793C78.4019 36.1562 79.0556 36.4589 79.7942 36.701C80.5447 36.9311 81.2893 37.046 82.0278 37.046C82.5241 37.046 82.9236 37.0037 83.2264 36.9189C83.5291 36.8221 83.747 36.701 83.8801 36.5557C84.0254 36.3983 84.098 36.2167 84.098 36.0109C84.098 35.7204 83.9649 35.4903 83.6985 35.3209C83.4321 35.1514 83.0871 35.0121 82.6634 34.9032C82.2398 34.7942 81.7676 34.6853 81.247 34.5763C80.7385 34.4673 80.224 34.3281 79.7034 34.1586C79.1949 33.9892 78.7287 33.7713 78.3051 33.5049C77.8814 33.2265 77.5364 32.8693 77.27 32.4335C77.0036 31.9855 76.8704 31.4225 76.8704 30.7446C76.8704 29.9819 77.0762 29.2918 77.4879 28.6744C77.9115 28.0569 78.5411 27.5606 79.3765 27.1853C80.2118 26.8099 81.2529 26.6223 82.5 26.6223C83.3353 26.6223 84.1525 26.7191 84.9516 26.9129C85.7628 27.0945 86.483 27.3669 87.1126 27.7301L86.0048 30.3996C85.3996 30.0727 84.8003 29.8306 84.207 29.6732C83.6137 29.5037 83.0388 29.4189 82.4818 29.4189C81.9855 29.4189 81.586 29.4734 81.2833 29.5824C80.9806 29.6792 80.7626 29.8124 80.6295 29.9819C80.4964 30.1513 80.4298 30.3451 80.4298 30.563C80.4298 30.8414 80.5569 31.0655 80.8111 31.2349C81.0775 31.3924 81.4226 31.5255 81.8462 31.6344C82.2821 31.7312 82.7542 31.8342 83.2627 31.9431C83.7833 32.0521 84.2978 32.1914 84.8063 32.3608C85.3269 32.5183 85.7991 32.7362 86.2227 33.0146C86.6464 33.281 86.9855 33.638 87.2397 34.086C87.5061 34.5218 87.6392 35.0726 87.6392 35.7385C87.6392 36.4771 87.4273 37.161 87.0036 37.7906C86.5919 38.408 85.9685 38.9043 85.1332 39.2797C84.31 39.6551 83.2687 39.8427 82.0097 39.8427ZM91.8287 39.5884V29.7276H87.9243V26.8766H99.3105V29.7276H95.4243V39.5884H91.8287ZM106.321 39.8427C104.444 39.8427 102.979 39.3282 101.926 38.2991C100.873 37.27 100.346 35.8112 100.346 33.9226V26.8766H103.942V33.8136C103.942 34.9032 104.154 35.6841 104.577 36.1562C105.013 36.6284 105.606 36.8644 106.357 36.8644C107.107 36.8644 107.695 36.6284 108.118 36.1562C108.542 35.6841 108.754 34.9032 108.754 33.8136V26.8766H112.295V33.9226C112.295 35.8112 111.769 37.27 110.715 38.2991C109.662 39.3282 108.197 39.8427 106.321 39.8427ZM114.731 39.5884V26.8766H120.742C122.146 26.8766 123.381 27.1368 124.446 27.6574C125.512 28.1781 126.341 28.9104 126.934 29.8548C127.54 30.7991 127.842 31.925 127.842 33.2325C127.842 34.5278 127.54 35.6537 126.934 36.6102C126.341 37.5545 125.512 38.2869 124.446 38.8075C123.381 39.3282 122.146 39.5884 120.742 39.5884H114.731ZM118.327 36.7192H120.597C121.323 36.7192 121.953 36.5861 122.485 36.3197C123.03 36.0413 123.454 35.6417 123.756 35.1211C124.059 34.5885 124.21 33.9589 124.21 33.2325C124.21 32.4939 124.059 31.8645 123.756 31.3439C123.454 30.8232 123.03 30.4299 122.485 30.1635C121.953 29.8851 121.323 29.7458 120.597 29.7458H118.327V36.7192ZM129.734 39.5884V26.8766H133.33V39.5884H129.734ZM142.298 39.8427C141.281 39.8427 140.343 39.6792 139.483 39.3523C138.624 39.0255 137.873 38.5655 137.232 37.9722C136.602 37.3669 136.112 36.6647 135.761 35.8657C135.41 35.0666 135.234 34.189 135.234 33.2325C135.234 32.276 135.41 31.3983 135.761 30.5993C136.112 29.8003 136.602 29.1042 137.232 28.5109C137.873 27.9057 138.624 27.4395 139.483 27.1126C140.343 26.7858 141.281 26.6223 142.298 26.6223C143.327 26.6223 144.265 26.7858 145.113 27.1126C145.973 27.4395 146.717 27.9057 147.347 28.5109C147.976 29.1042 148.467 29.8003 148.818 30.5993C149.181 31.3983 149.362 32.276 149.362 33.2325C149.362 34.189 149.181 35.0726 148.818 35.8838C148.467 36.6828 147.976 37.3789 147.347 37.9722C146.717 38.5655 145.973 39.0255 145.113 39.3523C144.265 39.6792 143.327 39.8427 142.298 39.8427ZM142.298 36.8644C142.783 36.8644 143.23 36.7796 143.642 36.6102C144.066 36.4408 144.429 36.1985 144.732 35.8838C145.046 35.5569 145.289 35.1696 145.458 34.7216C145.64 34.2736 145.73 33.7773 145.73 33.2325C145.73 32.6755 145.64 32.1792 145.458 31.7434C145.289 31.2954 145.046 30.914 144.732 30.5993C144.429 30.2724 144.066 30.0242 143.642 29.8548C143.23 29.6853 142.783 29.6005 142.298 29.6005C141.814 29.6005 141.36 29.6853 140.936 29.8548C140.525 30.0242 140.161 30.2724 139.847 30.5993C139.544 30.914 139.302 31.2954 139.12 31.7434C138.951 32.1792 138.866 32.6755 138.866 33.2325C138.866 33.7773 138.951 34.2736 139.12 34.7216C139.302 35.1696 139.544 35.5569 139.847 35.8838C140.161 36.1985 140.525 36.4408 140.936 36.6102C141.36 36.7796 141.814 36.8644 142.298 36.8644Z" fill="#F7F7F7"/>
<path fill-rule="evenodd" clip-rule="evenodd" d="M50.7154 34.7542L45.2938 45.6602C43.2082 49.8542 39.2913 50.2657 36.7683 46.1447C36.4142 45.5661 36.0774 44.9189 35.7367 44.2189C34.7786 42.2523 33.3118 39.5583 32.5231 38.129C31.0066 35.3779 29.4093 36.2282 28.0019 38.7043C27.6839 39.2636 26.9353 40.4482 26.0936 41.7553C24.9645 41.9538 23.7463 41.9503 22.9075 41.3447C20.9166 39.9077 18.6679 36.2966 18.6679 36.2966L26.8934 19.2257C28.9344 14.99 31.9867 15.9061 33.8341 19.2135C35.7432 22.6307 38.0303 27.1421 39.9708 30.5318C40.6304 31.6837 41.5089 32.9542 42.6247 33.9259C44.5055 35.5634 46.569 35.6863 48.9565 35.279C50.1018 35.0836 50.4784 34.8873 50.7154 34.7542Z" fill="url(#paint1_linear_339_2248)"/>
<path fill-rule="evenodd" clip-rule="evenodd" d="M26.0935 41.7555C24.5121 44.212 22.6023 47.1032 22.6023 47.1032C22.6023 47.1032 21.5063 48.8987 19.8106 48.8987C18.1147 48.8987 17.0087 48.4565 15.3498 44.8822C13.9502 41.8666 9.03324 32.3711 7.53129 29.4778C5.75448 26.0551 9.17494 23.7157 11.4789 26.7535C13.2111 29.0375 18.6676 36.2968 18.6676 36.2968C18.6676 36.2968 20.9165 39.9079 22.9072 41.3449C23.746 41.9505 24.9641 41.954 26.0933 41.7555H26.0935Z" fill="url(#paint2_linear_339_2248)"/>
<path fill-rule="evenodd" clip-rule="evenodd" d="M26.3548 41.3487L26.0935 41.7555H26.0931C24.9639 41.9542 23.7461 41.9505 22.9071 41.3449C20.9165 39.9079 18.6677 36.297 18.6677 36.297L19.9981 33.5356C20.6315 35.1557 21.5927 37.2726 22.7965 38.8763C24.0768 40.582 25.3222 41.1929 26.3548 41.3487Z" fill="#430AB4"/>
<path fill-rule="evenodd" clip-rule="evenodd" d="M26.0935 41.7555C25.2445 43.0744 24.3011 44.5185 23.6088 45.5734C23.5195 45.5253 23.4336 45.4714 23.351 45.412C21.3603 43.9748 19.1116 40.3639 19.1116 40.3639C19.1116 40.3639 13.655 33.1045 11.9228 30.8204C10.5367 28.9928 8.74709 29.1119 7.92754 30.2416L7.53129 29.4778C5.75448 26.0551 9.17494 23.7157 11.4789 26.7535C13.2111 29.0375 18.6677 36.2968 18.6677 36.2968C18.6677 36.2968 20.9165 39.9079 22.9071 41.3449C23.7459 41.9505 24.9641 41.954 26.0935 41.7555Z" fill="url(#paint3_linear_339_2248)"/>
<path fill-rule="evenodd" clip-rule="evenodd" d="M36.6407 45.9321C36.3347 45.4075 36.0327 44.8371 35.7363 44.2189C35.0893 42.8907 34.21 41.2305 33.4643 39.8524C33.2648 36.5624 32.8149 29.2256 32.501 24.742C32.0865 18.8264 30.5568 16.4048 30.5568 16.4048C32.1109 17.6298 33.6483 20.3833 34.3652 26.1766C35.5108 35.4325 36.2562 42.2553 36.6407 45.9321Z" fill="#3C5AC9"/>
<path d="M80.684 22.5183L76.5618 9.8064H80.2664L83.7349 20.8112H81.8644L85.5145 9.8064H88.8196L92.27 20.8112H90.4722L94.0497 9.8064H97.4819L93.3596 22.5183H89.5097L86.5678 13.166H87.6029L84.5339 22.5183H80.684ZM98.7703 22.5183V9.8064H102.366V22.5183H98.7703ZM104.924 22.5183V9.8064H108.52V19.6672H114.585V22.5183H104.924ZM116.008 22.5183V9.8064H122.019C123.423 9.8064 124.658 10.0667 125.723 10.5873C126.789 11.1079 127.618 11.8403 128.211 12.7846C128.817 13.7289 129.119 14.8548 129.119 16.1623C129.119 17.4577 128.817 18.5836 128.211 19.5401C127.618 20.4844 126.789 21.2167 125.723 21.7374C124.658 22.258 123.423 22.5183 122.019 22.5183H116.008ZM119.603 19.649H121.873C122.6 19.649 123.229 19.5159 123.762 19.2495C124.307 18.9711 124.731 18.5716 125.033 18.051C125.336 17.5183 125.487 16.8887 125.487 16.1623C125.487 15.4238 125.336 14.7943 125.033 14.2737C124.731 13.7531 124.307 13.3597 123.762 13.0933C123.229 12.8149 122.6 12.6756 121.873 12.6756H119.603V19.649Z" fill="#F7F7F7"/>
<path fill-rule="evenodd" clip-rule="evenodd" d="M53.1303 29.5478C51.8876 31.6799 50.108 33.6657 47.4227 33.7247C42.5077 33.8346 40.0718 27.0964 39.4033 25.7695L48.2041 5.69263C47.5307 11.1588 49.3391 14.2029 52.2688 23.7953C53.0199 26.2549 53.2551 28.1446 53.1301 29.5478H53.1303Z" fill="url(#paint4_linear_339_2248)"/>
<path fill-rule="evenodd" clip-rule="evenodd" d="M50.7149 34.7542L45.2933 45.6602C43.2078 49.8542 39.2907 50.2659 36.7678 46.1447C36.7249 46.0748 36.6828 46.0042 36.6405 45.9322C36.256 42.2553 35.5106 35.4324 34.3651 26.1766C33.6481 20.3832 32.1107 17.6298 30.5566 16.4048C31.7638 16.5727 32.9397 17.6132 33.8337 19.2137C35.7427 22.6307 38.0297 27.1421 39.9703 30.5318C40.6298 31.6839 41.5084 32.9542 42.6241 33.9261C44.5049 35.5634 46.5684 35.6865 48.9559 35.2792C50.1013 35.0836 50.4779 34.8873 50.7149 34.7542Z" fill="url(#paint5_linear_339_2248)"/>
<path fill-rule="evenodd" clip-rule="evenodd" d="M50.7149 34.7542L47.9157 40.3853C46.6447 41.0031 45.2829 41.3792 43.9827 41.1875C40.3723 40.655 38.8927 33.9112 36.6437 26.8125C35.1221 22.0102 32.8736 18.943 31.5781 17.4606C31.2443 17.0229 30.9009 16.676 30.5566 16.4048C31.7638 16.5727 32.9395 17.6132 33.8337 19.2137C35.7427 22.6307 38.0297 27.1421 39.9703 30.5318C40.6298 31.6839 41.5084 32.9542 42.6241 33.9261C44.5049 35.5634 46.5684 35.6865 48.9559 35.2792C50.1013 35.0836 50.4779 34.8873 50.7149 34.7542Z" fill="#7F00AF"/>
<path fill-rule="evenodd" clip-rule="evenodd" d="M49.9847 32.9966C49.2365 33.4328 48.3884 33.7032 47.4225 33.7248C42.5077 33.8349 40.0718 27.0967 39.4031 25.7696L41.9065 20.0588C42.1404 21.464 42.4149 22.858 42.7367 24.1548C43.4622 27.0791 45.9951 33.2719 49.9845 32.9966H49.9847Z" fill="url(#paint6_linear_339_2248)"/>
<path fill-rule="evenodd" clip-rule="evenodd" d="M5.37858 17.8208C6.8986 17.8208 8.1307 19.0523 8.1307 20.5715C8.1307 22.0908 6.8986 23.3224 5.37858 23.3224C3.85857 23.3224 2.62646 22.0908 2.62646 20.5715C2.62646 19.0523 3.85857 17.8208 5.37858 17.8208Z" fill="url(#paint7_linear_339_2248)"/>
<path fill-rule="evenodd" clip-rule="evenodd" d="M1.84302 13.1982C2.86097 13.1982 3.68604 14.0232 3.68604 15.0404C3.68604 16.0578 2.86097 16.8825 1.84302 16.8825C0.825082 16.8825 0 16.0578 0 15.0404C0 14.0232 0.825082 13.1982 1.84302 13.1982Z" fill="url(#paint8_linear_339_2248)"/>
<path fill-rule="evenodd" clip-rule="evenodd" d="M55.5606 3.01447e-05C59.6662 3.01447e-05 62.9958 3.32806 62.9958 7.43138C62.9958 8.22823 62.8674 9.01881 62.619 9.76954C62.4699 10.2202 62.277 10.6566 62.0431 11.0717L53.9486 27.9888C53.704 28.5002 53.4328 29.0283 53.1299 29.548C53.2549 28.1448 53.0195 26.2551 52.2684 23.7955C49.3389 14.2027 47.5304 11.1589 48.2037 5.69226L48.7473 4.45275H48.7478C49.8968 1.83183 52.5151 0 55.5606 0V3.01447e-05Z" fill="url(#paint9_linear_339_2248)"/>
<path fill-rule="evenodd" clip-rule="evenodd" d="M58.0462 15.6165C58.0462 15.6165 61.6255 10.696 61.8465 7.49479C62.0673 4.29385 59.3362 3.25335 57.5252 3.64012C55.7139 4.0269 54.2163 6.57262 55.8492 9.48807C57.482 12.4035 58.0462 15.6165 58.0462 15.6165V15.6165ZM55.561 0.000244141C58.9376 0.000244141 61.7887 2.25144 62.6951 5.33357C59.9766 -0.0248269 53.4924 1.62603 52.8565 7.30778C52.5338 10.1926 53.6602 13.5275 54.1629 15.2771C55.7559 20.8234 55.5777 24.5676 55.5768 24.5867L53.949 27.9889C53.7044 28.5003 53.4334 29.0284 53.1303 29.5479C53.2553 28.1447 53.0201 26.255 52.269 23.7956C49.3393 14.2027 47.5309 11.1589 48.2043 5.69252C48.4979 5.02226 48.7691 4.3194 49.1393 3.68548C50.4294 1.48166 52.8223 0.000254189 55.561 0.000254189V0.000244141Z" fill="url(#paint10_linear_339_2248)"/>
<path fill-rule="evenodd" clip-rule="evenodd" d="M53.5335 28.819C53.4058 29.0622 53.2716 29.3061 53.1303 29.548C53.2553 28.1448 53.0201 26.2549 52.269 23.7955C49.3393 14.2026 47.5309 11.1588 48.2043 5.69243C48.4979 5.02217 48.7691 4.31931 49.1393 3.68539C49.9576 2.28719 51.2201 1.17977 52.7332 0.557129C51.3859 1.20083 50.2627 2.23807 49.5125 3.5197C49.1421 4.15362 48.8711 4.85648 48.5773 5.52674C47.9039 10.9931 49.7125 14.037 52.6422 23.6297C53.2972 25.7744 53.5598 27.4857 53.5335 28.819Z" fill="url(#paint11_linear_339_2248)"/>
</g>
<defs>
<linearGradient id="paint0_linear_339_2248" x1="17.2222" y1="42.555" x2="14.317" y2="35.3351" gradientUnits="userSpaceOnUse">
<stop stop-color="#3564CC"/>
<stop offset="1" stop-color="#12B4F7"/>
</linearGradient>
<linearGradient id="paint1_linear_339_2248" x1="29.5001" y1="38.8388" x2="39.8775" y2="26.4121" gradientUnits="userSpaceOnUse">
<stop stop-color="#430AB4"/>
<stop offset="1" stop-color="#3770D2"/>
</linearGradient>
<linearGradient id="paint2_linear_339_2248" x1="24.034" y1="49.4166" x2="7.82572" y2="23.1907" gradientUnits="userSpaceOnUse">
<stop stop-color="#1F99E9"/>
<stop offset="1" stop-color="#ACE9EB"/>
</linearGradient>
<linearGradient id="paint3_linear_339_2248" x1="22.4094" y1="43.8275" x2="9.44728" y2="25.4556" gradientUnits="userSpaceOnUse">
<stop stop-color="#12B4F7"/>
<stop offset="1" stop-color="#ACE9EB"/>
</linearGradient>
<linearGradient id="paint4_linear_339_2248" x1="46.1048" y1="12.063" x2="46.5532" y2="27.4641" gradientUnits="userSpaceOnUse">
<stop stop-color="#74267E"/>
<stop offset="0.329412" stop-color="#9A1F7A"/>
<stop offset="1" stop-color="#DE2A80"/>
</linearGradient>
<linearGradient id="paint5_linear_339_2248" x1="42.479" y1="48.7127" x2="38.7966" y2="17.9576" gradientUnits="userSpaceOnUse">
<stop stop-color="#7706AA"/>
<stop offset="1" stop-color="#C84CE1"/>
</linearGradient>
<linearGradient id="paint6_linear_339_2248" x1="41.5585" y1="22.785" x2="47.8257" y2="31.1118" gradientUnits="userSpaceOnUse">
<stop stop-color="#C10182"/>
<stop offset="1" stop-color="#E43380"/>
</linearGradient>
<linearGradient id="paint7_linear_339_2248" x1="5.37858" y1="17.8208" x2="5.37858" y2="23.3224" gradientUnits="userSpaceOnUse">
<stop stop-color="#ACE9EB"/>
<stop offset="0.518229" stop-color="#72C6E9"/>
<stop offset="1" stop-color="#1F99E9"/>
</linearGradient>
<linearGradient id="paint8_linear_339_2248" x1="1.84302" y1="13.1982" x2="1.84302" y2="16.8825" gradientUnits="userSpaceOnUse">
<stop stop-color="#ACE9EB"/>
<stop offset="0.481771" stop-color="#72C6E9"/>
<stop offset="1" stop-color="#1F99E9"/>
</linearGradient>
<linearGradient id="paint9_linear_339_2248" x1="55.6476" y1="25.8913" x2="54.8798" y2="3.65666" gradientUnits="userSpaceOnUse">
<stop stop-color="#BC28A5"/>
<stop offset="0.341176" stop-color="#D636A1"/>
<stop offset="1" stop-color="#FD9190"/>
</linearGradient>
<linearGradient id="paint10_linear_339_2248" x1="56.3237" y1="23.1617" x2="53.9047" y2="6.36147" gradientUnits="userSpaceOnUse">
<stop stop-color="#D631A5"/>
<stop offset="0.4" stop-color="#F65A95"/>
<stop offset="1" stop-color="#F8A589"/>
</linearGradient>
<linearGradient id="paint11_linear_339_2248" x1="48.6714" y1="2.18339" x2="52.4154" y2="27.9223" gradientUnits="userSpaceOnUse">
<stop stop-color="#FFA090"/>
<stop offset="1" stop-color="#D636A1"/>
</linearGradient>
<clipPath id="clip0_339_2248">
<rect width="150" height="49.0315" fill="white"/>
</clipPath>
</defs>
</svg>
