<svg width="550" height="351" viewBox="0 0 550 351" fill="none" xmlns="http://www.w3.org/2000/svg">
<g clip-path="url(#clip0_75_198)">
<path opacity="0.1" d="M491.469 347.598C542.848 347.598 558.501 305.126 543.699 253.113C535.327 223.698 515.97 185.233 484.345 167.825C397.803 120.189 409.467 117.902 388.043 67.1978C353.07 -15.5728 218.591 -18.7668 163.643 40.5446C120.888 86.6937 102.592 151.751 44.3416 199.685C-25.9697 257.545 -6.79223 348.436 60.7462 348.436L491.469 347.598Z" fill="#367CFF"/>
<path d="M549.003 297.437H7.09322L38.2809 230.15H517.815L549.003 297.437Z" fill="#292A2E"/>
<path d="M549.003 297.437H7.09322L38.2809 230.15H517.815L549.003 297.437Z" fill="white"/>
<path d="M549.003 298.029H7.09618C6.9965 298.03 6.8984 298.004 6.811 297.956C6.72361 297.908 6.64975 297.839 6.59629 297.755C6.54284 297.67 6.51152 297.574 6.50525 297.474C6.49897 297.374 6.51795 297.275 6.56042 297.184L37.7458 229.898C37.7935 229.796 37.8692 229.71 37.9639 229.65C38.0587 229.589 38.1686 229.557 38.2809 229.557H517.815C517.927 229.557 518.037 229.589 518.132 229.65C518.227 229.71 518.303 229.796 518.35 229.898L549.54 297.184C549.582 297.274 549.601 297.374 549.595 297.473C549.589 297.573 549.558 297.669 549.505 297.753C549.452 297.837 549.379 297.907 549.292 297.955C549.205 298.003 549.107 298.029 549.008 298.029H549.003ZM8.024 296.844H548.072L517.44 230.743H38.657L8.024 296.844Z" fill="#292A2E"/>
<path d="M315.523 207.623H263.044V247.387H315.523V207.623Z" fill="#292A2E"/>
<path opacity="0.64" d="M315.524 207.623H263.044V228.866H315.524V207.623Z" fill="#0C0C0C"/>
<path d="M400.745 49.8593H177.822C174.316 49.8593 171.473 52.7081 171.473 56.2223V212.154C171.473 215.668 174.316 218.517 177.822 218.517H400.745C404.252 218.517 407.094 215.668 407.094 212.154V56.2223C407.094 52.7081 404.252 49.8593 400.745 49.8593Z" fill="#292A2E"/>
<path d="M397.611 57.0871H180.956C179.517 57.0871 178.35 58.2565 178.35 59.699V189.022C178.35 190.464 179.517 191.634 180.956 191.634H397.611C399.051 191.634 400.217 190.464 400.217 189.022V59.699C400.217 58.2565 399.051 57.0871 397.611 57.0871Z" fill="white"/>
<path d="M326.442 244.119H252.125C250.223 244.119 248.681 245.664 248.681 247.571C248.681 249.477 250.223 251.022 252.125 251.022H326.442C328.344 251.022 329.886 249.477 329.886 247.571C329.886 245.664 328.344 244.119 326.442 244.119Z" fill="#292A2E"/>
<path d="M252.528 78.5785H242.661C242.602 78.5807 242.543 78.571 242.488 78.5499C242.433 78.5288 242.383 78.4968 242.341 78.4559C242.298 78.4149 242.265 78.3658 242.242 78.3114C242.219 78.2571 242.207 78.1987 242.207 78.1396C242.207 78.0806 242.219 78.0222 242.242 77.9679C242.265 77.9135 242.298 77.8644 242.341 77.8235C242.383 77.7825 242.433 77.7505 242.488 77.7294C242.543 77.7083 242.602 77.6986 242.661 77.7008H252.528C252.641 77.7049 252.748 77.753 252.827 77.8349C252.906 77.9167 252.95 78.026 252.95 78.1396C252.95 78.2533 252.906 78.3626 252.827 78.4444C252.748 78.5263 252.641 78.5744 252.528 78.5785Z" fill="#292A2E"/>
<path d="M235.545 78.5785H231.812C231.753 78.5807 231.695 78.571 231.639 78.5499C231.584 78.5288 231.534 78.4968 231.492 78.4559C231.449 78.4149 231.416 78.3658 231.393 78.3114C231.37 78.2571 231.358 78.1987 231.358 78.1396C231.358 78.0806 231.37 78.0222 231.393 77.9679C231.416 77.9135 231.449 77.8644 231.492 77.8235C231.534 77.7825 231.584 77.7505 231.639 77.7294C231.695 77.7083 231.753 77.6986 231.812 77.7008H235.545C235.604 77.6986 235.663 77.7083 235.718 77.7294C235.773 77.7505 235.823 77.7825 235.865 77.8235C235.908 77.8644 235.942 77.9135 235.965 77.9679C235.988 78.0222 236 78.0806 236 78.1396C236 78.1987 235.988 78.2571 235.965 78.3114C235.942 78.3658 235.908 78.4149 235.865 78.4559C235.823 78.4968 235.773 78.5288 235.718 78.5499C235.663 78.571 235.604 78.5807 235.545 78.5785Z" fill="#367CFF"/>
<path d="M235.545 86.4998H231.812C231.696 86.4998 231.584 86.4535 231.502 86.3712C231.42 86.2888 231.374 86.1771 231.374 86.0606C231.374 85.9441 231.42 85.8324 231.502 85.7501C231.584 85.6677 231.696 85.6214 231.812 85.6214H235.545C235.661 85.6214 235.773 85.6677 235.855 85.7501C235.937 85.8324 235.983 85.9441 235.983 86.0606C235.983 86.1771 235.937 86.2888 235.855 86.3712C235.773 86.4535 235.661 86.4998 235.545 86.4998Z" fill="#367CFF"/>
<path d="M235.545 94.4211H231.812C231.696 94.4211 231.584 94.3748 231.502 94.2925C231.42 94.2101 231.374 94.0984 231.374 93.9819C231.374 93.8654 231.42 93.7537 231.502 93.6714C231.584 93.589 231.696 93.5427 231.812 93.5427H235.545C235.661 93.5427 235.773 93.589 235.855 93.6714C235.937 93.7537 235.983 93.8654 235.983 93.9819C235.983 94.0984 235.937 94.2101 235.855 94.2925C235.773 94.3748 235.661 94.4211 235.545 94.4211Z" fill="#367CFF"/>
<path d="M235.545 102.342H231.812C231.696 102.342 231.584 102.296 231.502 102.214C231.42 102.131 231.374 102.02 231.374 101.903C231.374 101.787 231.42 101.675 231.502 101.593C231.584 101.51 231.696 101.464 231.812 101.464H235.545C235.661 101.464 235.773 101.51 235.855 101.593C235.937 101.675 235.983 101.787 235.983 101.903C235.983 102.02 235.937 102.131 235.855 102.214C235.773 102.296 235.661 102.342 235.545 102.342Z" fill="#367CFF"/>
<path d="M235.545 110.263H231.812C231.753 110.265 231.695 110.255 231.639 110.234C231.584 110.213 231.534 110.181 231.492 110.14C231.449 110.099 231.416 110.05 231.393 109.996C231.37 109.942 231.358 109.883 231.358 109.824C231.358 109.765 231.37 109.707 231.393 109.652C231.416 109.598 231.449 109.549 231.492 109.508C231.534 109.467 231.584 109.435 231.639 109.414C231.695 109.393 231.753 109.383 231.812 109.385H235.545C235.604 109.383 235.663 109.393 235.718 109.414C235.773 109.435 235.823 109.467 235.865 109.508C235.908 109.549 235.942 109.598 235.965 109.652C235.988 109.707 236 109.765 236 109.824C236 109.883 235.988 109.942 235.965 109.996C235.942 110.05 235.908 110.099 235.865 110.14C235.823 110.181 235.773 110.213 235.718 110.234C235.663 110.255 235.604 110.265 235.545 110.263Z" fill="#367CFF"/>
<path d="M235.545 118.182H231.812C231.696 118.182 231.584 118.136 231.502 118.053C231.42 117.971 231.374 117.859 231.374 117.743C231.374 117.626 231.42 117.515 231.502 117.432C231.584 117.35 231.696 117.304 231.812 117.304H235.545C235.661 117.304 235.773 117.35 235.855 117.432C235.937 117.515 235.983 117.626 235.983 117.743C235.983 117.859 235.937 117.971 235.855 118.053C235.773 118.136 235.661 118.182 235.545 118.182Z" fill="#367CFF"/>
<path d="M235.545 126.106H231.812C231.696 126.106 231.584 126.059 231.502 125.977C231.42 125.895 231.374 125.783 231.374 125.666C231.374 125.55 231.42 125.438 231.502 125.356C231.584 125.273 231.696 125.227 231.812 125.227H235.545C235.661 125.227 235.773 125.273 235.855 125.356C235.937 125.438 235.983 125.55 235.983 125.666C235.983 125.783 235.937 125.895 235.855 125.977C235.773 126.059 235.661 126.106 235.545 126.106Z" fill="#367CFF"/>
<path d="M235.545 134.026H231.812C231.753 134.028 231.695 134.019 231.639 133.998C231.584 133.976 231.534 133.945 231.492 133.904C231.449 133.863 231.416 133.813 231.393 133.759C231.37 133.705 231.358 133.646 231.358 133.587C231.358 133.528 231.37 133.47 231.393 133.416C231.416 133.361 231.449 133.312 231.492 133.271C231.534 133.23 231.584 133.198 231.639 133.177C231.695 133.156 231.753 133.146 231.812 133.148H235.545C235.604 133.146 235.663 133.156 235.718 133.177C235.773 133.198 235.823 133.23 235.865 133.271C235.908 133.312 235.942 133.361 235.965 133.416C235.988 133.47 236 133.528 236 133.587C236 133.646 235.988 133.705 235.965 133.759C235.942 133.813 235.908 133.863 235.865 133.904C235.823 133.945 235.773 133.976 235.718 133.998C235.663 134.019 235.604 134.028 235.545 134.026Z" fill="#367CFF"/>
<path d="M235.545 141.949H231.812C231.696 141.949 231.584 141.902 231.502 141.82C231.42 141.738 231.374 141.626 231.374 141.51C231.374 141.393 231.42 141.281 231.502 141.199C231.584 141.117 231.696 141.07 231.812 141.07H235.545C235.661 141.07 235.773 141.117 235.855 141.199C235.937 141.281 235.983 141.393 235.983 141.51C235.983 141.626 235.937 141.738 235.855 141.82C235.773 141.902 235.661 141.949 235.545 141.949Z" fill="#367CFF"/>
<path d="M235.545 149.869H231.812C231.696 149.869 231.584 149.823 231.502 149.74C231.42 149.658 231.374 149.546 231.374 149.43C231.374 149.313 231.42 149.201 231.502 149.119C231.584 149.037 231.696 148.99 231.812 148.99H235.545C235.661 148.99 235.773 149.037 235.855 149.119C235.937 149.201 235.983 149.313 235.983 149.43C235.983 149.546 235.937 149.658 235.855 149.74C235.773 149.823 235.661 149.869 235.545 149.869Z" fill="#367CFF"/>
<path d="M235.545 157.789H231.812C231.753 157.792 231.695 157.782 231.639 157.761C231.584 157.74 231.534 157.708 231.492 157.667C231.449 157.626 231.416 157.577 231.393 157.522C231.37 157.468 231.358 157.41 231.358 157.351C231.358 157.292 231.37 157.233 231.393 157.179C231.416 157.124 231.449 157.075 231.492 157.034C231.534 156.993 231.584 156.961 231.639 156.94C231.695 156.919 231.753 156.91 231.812 156.912H235.545C235.604 156.91 235.663 156.919 235.718 156.94C235.773 156.961 235.823 156.993 235.865 157.034C235.908 157.075 235.942 157.124 235.965 157.179C235.988 157.233 236 157.292 236 157.351C236 157.41 235.988 157.468 235.965 157.522C235.942 157.577 235.908 157.626 235.865 157.667C235.823 157.708 235.773 157.74 235.718 157.761C235.663 157.782 235.604 157.792 235.545 157.789Z" fill="#367CFF"/>
<path d="M235.545 165.711H231.812C231.696 165.711 231.584 165.664 231.502 165.582C231.42 165.5 231.374 165.388 231.374 165.272C231.374 165.155 231.42 165.043 231.502 164.961C231.584 164.879 231.696 164.832 231.812 164.832H235.545C235.661 164.832 235.773 164.879 235.855 164.961C235.937 165.043 235.983 165.155 235.983 165.272C235.983 165.388 235.937 165.5 235.855 165.582C235.773 165.664 235.661 165.711 235.545 165.711Z" fill="#367CFF"/>
<path d="M235.545 173.632H231.812C231.696 173.632 231.584 173.586 231.502 173.503C231.42 173.421 231.374 173.309 231.374 173.193C231.374 173.076 231.42 172.965 231.502 172.882C231.584 172.8 231.696 172.754 231.812 172.754H235.545C235.661 172.754 235.773 172.8 235.855 172.882C235.937 172.965 235.983 173.076 235.983 173.193C235.983 173.309 235.937 173.421 235.855 173.503C235.773 173.586 235.661 173.632 235.545 173.632Z" fill="#367CFF"/>
<path d="M235.545 181.553H231.812C231.753 181.555 231.695 181.545 231.639 181.524C231.584 181.503 231.534 181.471 231.492 181.43C231.449 181.389 231.416 181.34 231.393 181.286C231.37 181.231 231.358 181.173 231.358 181.114C231.358 181.055 231.37 180.996 231.393 180.942C231.416 180.888 231.449 180.839 231.492 180.798C231.534 180.757 231.584 180.725 231.639 180.704C231.695 180.683 231.753 180.673 231.812 180.675H235.545C235.604 180.673 235.663 180.683 235.718 180.704C235.773 180.725 235.823 180.757 235.865 180.798C235.908 180.839 235.942 180.888 235.965 180.942C235.988 180.996 236 181.055 236 181.114C236 181.173 235.988 181.231 235.965 181.286C235.942 181.34 235.908 181.389 235.865 181.43C235.823 181.471 235.773 181.503 235.718 181.524C235.663 181.545 235.604 181.555 235.545 181.553Z" fill="#367CFF"/>
<path d="M260.413 86.4998H251.424C251.365 86.502 251.307 86.4922 251.252 86.4711C251.197 86.4501 251.146 86.4181 251.104 86.3771C251.062 86.3361 251.028 86.287 251.005 86.2327C250.982 86.1784 250.97 86.1199 250.97 86.0609C250.97 86.0019 250.982 85.9435 251.005 85.8891C251.028 85.8348 251.062 85.7857 251.104 85.7447C251.146 85.7037 251.197 85.6718 251.252 85.6507C251.307 85.6296 251.365 85.6199 251.424 85.622H260.413C260.471 85.6199 260.53 85.6296 260.585 85.6507C260.64 85.6718 260.69 85.7037 260.733 85.7447C260.775 85.7857 260.809 85.8348 260.832 85.8891C260.855 85.9435 260.867 86.0019 260.867 86.0609C260.867 86.1199 260.855 86.1784 260.832 86.2327C260.809 86.287 260.775 86.3361 260.733 86.3771C260.69 86.4181 260.64 86.4501 260.585 86.4711C260.53 86.4922 260.471 86.502 260.413 86.4998Z" fill="#292A2E"/>
<path d="M252.528 134.026H242.661C242.602 134.028 242.543 134.019 242.488 133.998C242.433 133.976 242.383 133.945 242.341 133.904C242.298 133.863 242.265 133.813 242.242 133.759C242.219 133.705 242.207 133.646 242.207 133.587C242.207 133.528 242.219 133.47 242.242 133.416C242.265 133.361 242.298 133.312 242.341 133.271C242.383 133.23 242.433 133.198 242.488 133.177C242.543 133.156 242.602 133.146 242.661 133.148H252.528C252.641 133.153 252.748 133.201 252.827 133.283C252.906 133.364 252.95 133.474 252.95 133.587C252.95 133.701 252.906 133.81 252.827 133.892C252.748 133.974 252.641 134.022 252.528 134.026Z" fill="#292A2E"/>
<path d="M260.413 141.949H251.424C251.308 141.949 251.196 141.902 251.114 141.82C251.032 141.738 250.986 141.626 250.986 141.51C250.986 141.393 251.032 141.281 251.114 141.199C251.196 141.117 251.308 141.07 251.424 141.07H260.413C260.529 141.07 260.64 141.117 260.722 141.199C260.805 141.281 260.851 141.393 260.851 141.51C260.851 141.626 260.805 141.738 260.722 141.82C260.64 141.902 260.529 141.949 260.413 141.949Z" fill="#292A2E"/>
<path d="M323.058 94.4211H257.556C257.44 94.4211 257.328 94.3748 257.246 94.2925C257.164 94.2101 257.118 94.0984 257.118 93.9819C257.118 93.8654 257.164 93.7537 257.246 93.6714C257.328 93.589 257.44 93.5427 257.556 93.5427H323.058C323.174 93.5427 323.286 93.589 323.368 93.6714C323.45 93.7537 323.496 93.8654 323.496 93.9819C323.496 94.0984 323.45 94.2101 323.368 94.2925C323.286 94.3748 323.174 94.4211 323.058 94.4211Z" fill="#292A2E"/>
<path d="M370.448 94.4211H332.542C332.426 94.4211 332.315 94.3748 332.232 94.2925C332.15 94.2101 332.104 94.0984 332.104 93.9819C332.104 93.8654 332.15 93.7537 332.232 93.6714C332.315 93.589 332.426 93.5427 332.542 93.5427H370.448C370.564 93.5427 370.675 93.589 370.758 93.6714C370.84 93.7537 370.886 93.8654 370.886 93.9819C370.886 94.0984 370.84 94.2101 370.758 94.2925C370.675 94.3748 370.564 94.4211 370.448 94.4211Z" fill="#0CBC8B"/>
<path d="M390.79 94.4211H379.173C379.056 94.4211 378.945 94.3748 378.863 94.2925C378.78 94.2101 378.734 94.0984 378.734 93.9819C378.734 93.8654 378.78 93.7537 378.863 93.6714C378.945 93.589 379.056 93.5427 379.173 93.5427H390.791C390.907 93.5427 391.018 93.589 391.101 93.6714C391.183 93.7537 391.229 93.8654 391.229 93.9819C391.229 94.0984 391.183 94.2101 391.101 94.2925C391.018 94.3748 390.907 94.4211 390.791 94.4211H390.79Z" fill="#292A2E"/>
<path d="M349.343 110.263H257.556C257.497 110.265 257.438 110.255 257.383 110.234C257.328 110.213 257.278 110.181 257.236 110.14C257.193 110.099 257.159 110.05 257.136 109.996C257.113 109.942 257.102 109.883 257.102 109.824C257.102 109.765 257.113 109.707 257.136 109.652C257.159 109.598 257.193 109.549 257.236 109.508C257.278 109.467 257.328 109.435 257.383 109.414C257.438 109.393 257.497 109.383 257.556 109.385H349.343C349.402 109.383 349.461 109.393 349.516 109.414C349.571 109.435 349.621 109.467 349.663 109.508C349.706 109.549 349.739 109.598 349.762 109.652C349.786 109.707 349.797 109.765 349.797 109.824C349.797 109.883 349.786 109.942 349.762 109.996C349.739 110.05 349.706 110.099 349.663 110.14C349.621 110.181 349.571 110.213 349.516 110.234C349.461 110.255 349.402 110.265 349.343 110.263Z" fill="#292A2E"/>
<path d="M370.448 110.263H358.83C358.771 110.265 358.713 110.255 358.658 110.234C358.603 110.213 358.552 110.181 358.51 110.14C358.468 110.099 358.434 110.05 358.411 109.996C358.388 109.942 358.376 109.883 358.376 109.824C358.376 109.765 358.388 109.707 358.411 109.652C358.434 109.598 358.468 109.549 358.51 109.508C358.552 109.467 358.603 109.435 358.658 109.414C358.713 109.393 358.771 109.383 358.83 109.385H370.449C370.508 109.383 370.566 109.393 370.621 109.414C370.677 109.435 370.727 109.467 370.769 109.508C370.812 109.549 370.845 109.598 370.868 109.652C370.891 109.707 370.903 109.765 370.903 109.824C370.903 109.883 370.891 109.942 370.868 109.996C370.845 110.05 370.812 110.099 370.769 110.14C370.727 110.181 370.677 110.213 370.621 110.234C370.566 110.255 370.508 110.265 370.449 110.263H370.448Z" fill="#367CFF"/>
<path d="M267.422 102.342H257.556C257.44 102.342 257.328 102.296 257.246 102.214C257.164 102.131 257.118 102.02 257.118 101.903C257.118 101.787 257.164 101.675 257.246 101.593C257.328 101.51 257.44 101.464 257.556 101.464H267.422C267.539 101.464 267.65 101.51 267.732 101.593C267.814 101.675 267.861 101.787 267.861 101.903C267.861 102.02 267.814 102.131 267.732 102.214C267.65 102.296 267.539 102.342 267.422 102.342Z" fill="#0CBC8B"/>
<path d="M344.165 102.342H276.908C276.791 102.342 276.68 102.296 276.598 102.214C276.516 102.131 276.469 102.02 276.469 101.903C276.469 101.787 276.516 101.675 276.598 101.593C276.68 101.51 276.791 101.464 276.908 101.464H344.165C344.281 101.464 344.392 101.51 344.475 101.593C344.557 101.675 344.603 101.787 344.603 101.903C344.603 102.02 344.557 102.131 344.475 102.214C344.392 102.296 344.281 102.342 344.165 102.342Z" fill="#367CFF"/>
<path d="M390.866 102.342H354.714C354.598 102.342 354.487 102.296 354.405 102.214C354.322 102.131 354.276 102.02 354.276 101.903C354.276 101.787 354.322 101.675 354.405 101.593C354.487 101.51 354.598 101.464 354.714 101.464H390.866C390.982 101.464 391.094 101.51 391.176 101.593C391.258 101.675 391.304 101.787 391.304 101.903C391.304 102.02 391.258 102.131 391.176 102.214C391.094 102.296 390.982 102.342 390.866 102.342Z" fill="#292A2E"/>
<path d="M323.058 118.182H257.556C257.44 118.182 257.328 118.136 257.246 118.053C257.164 117.971 257.118 117.859 257.118 117.743C257.118 117.626 257.164 117.515 257.246 117.432C257.328 117.35 257.44 117.304 257.556 117.304H323.058C323.174 117.304 323.286 117.35 323.368 117.432C323.45 117.515 323.496 117.626 323.496 117.743C323.496 117.859 323.45 117.971 323.368 118.053C323.286 118.136 323.174 118.182 323.058 118.182Z" fill="#292A2E"/>
<path d="M352.924 118.182H332.544C332.427 118.182 332.316 118.136 332.234 118.053C332.151 117.971 332.105 117.859 332.105 117.743C332.105 117.626 332.151 117.515 332.234 117.432C332.316 117.35 332.427 117.304 332.544 117.304H352.924C353.041 117.304 353.152 117.35 353.234 117.432C353.316 117.515 353.363 117.626 353.363 117.743C353.363 117.859 353.316 117.971 353.234 118.053C353.152 118.136 353.041 118.182 352.924 118.182Z" fill="#0CBC8B"/>
<path d="M390.79 118.182H361.647C361.531 118.182 361.42 118.136 361.337 118.053C361.255 117.971 361.209 117.859 361.209 117.743C361.209 117.626 361.255 117.515 361.337 117.432C361.42 117.35 361.531 117.304 361.647 117.304H390.79C390.906 117.304 391.017 117.35 391.099 117.432C391.182 117.515 391.228 117.626 391.228 117.743C391.228 117.859 391.182 117.971 391.099 118.053C391.017 118.136 390.906 118.182 390.79 118.182Z" fill="#292A2E"/>
<path d="M267.422 126.106H257.556C257.44 126.106 257.328 126.059 257.246 125.977C257.164 125.895 257.118 125.783 257.118 125.666C257.118 125.55 257.164 125.438 257.246 125.356C257.328 125.273 257.44 125.227 257.556 125.227H267.422C267.539 125.227 267.65 125.273 267.732 125.356C267.814 125.438 267.861 125.55 267.861 125.666C267.861 125.783 267.814 125.895 267.732 125.977C267.65 126.059 267.539 126.106 267.422 126.106Z" fill="#367CFF"/>
<path d="M344.165 126.106H276.908C276.791 126.106 276.68 126.059 276.598 125.977C276.516 125.895 276.469 125.783 276.469 125.666C276.469 125.55 276.516 125.438 276.598 125.356C276.68 125.273 276.791 125.227 276.908 125.227H344.165C344.281 125.227 344.392 125.273 344.475 125.356C344.557 125.438 344.603 125.55 344.603 125.666C344.603 125.783 344.557 125.895 344.475 125.977C344.392 126.059 344.281 126.106 344.165 126.106Z" fill="#0CBC8B"/>
<path d="M321.306 157.79H255.804C255.687 157.79 255.576 157.744 255.494 157.661C255.412 157.579 255.365 157.467 255.365 157.351C255.365 157.234 255.412 157.123 255.494 157.04C255.576 156.958 255.687 156.912 255.804 156.912H321.306C321.422 156.912 321.533 156.958 321.615 157.04C321.698 157.123 321.744 157.234 321.744 157.351C321.744 157.467 321.698 157.579 321.615 157.661C321.533 157.744 321.422 157.79 321.306 157.79Z" fill="#292A2E"/>
<path d="M368.696 157.79H330.79C330.674 157.79 330.562 157.744 330.48 157.661C330.398 157.579 330.352 157.467 330.352 157.351C330.352 157.234 330.398 157.123 330.48 157.04C330.562 156.958 330.674 156.912 330.79 156.912H368.696C368.812 156.912 368.923 156.958 369.005 157.04C369.088 157.123 369.134 157.234 369.134 157.351C369.134 157.467 369.088 157.579 369.005 157.661C368.923 157.744 368.812 157.79 368.696 157.79Z" fill="#367CFF"/>
<path d="M283.197 149.869H255.804C255.687 149.869 255.576 149.823 255.494 149.74C255.412 149.658 255.365 149.546 255.365 149.43C255.365 149.313 255.412 149.201 255.494 149.119C255.576 149.037 255.687 148.99 255.804 148.99H283.197C283.313 148.99 283.424 149.037 283.507 149.119C283.589 149.201 283.635 149.313 283.635 149.43C283.635 149.546 283.589 149.658 283.507 149.74C283.424 149.823 283.313 149.869 283.197 149.869Z" fill="#0CBC8B"/>
<path d="M342.41 149.869H292.678C292.562 149.869 292.45 149.823 292.368 149.74C292.286 149.658 292.24 149.546 292.24 149.43C292.24 149.313 292.286 149.201 292.368 149.119C292.45 149.037 292.562 148.99 292.678 148.99H342.41C342.526 148.99 342.638 149.037 342.72 149.119C342.802 149.201 342.848 149.313 342.848 149.43C342.848 149.546 342.802 149.658 342.72 149.74C342.638 149.823 342.526 149.869 342.41 149.869Z" fill="#367CFF"/>
<path d="M389.114 149.869H352.962C352.846 149.869 352.735 149.823 352.652 149.74C352.57 149.658 352.524 149.546 352.524 149.43C352.524 149.313 352.57 149.201 352.652 149.119C352.735 149.037 352.846 148.99 352.962 148.99H389.114C389.23 148.99 389.341 149.037 389.424 149.119C389.506 149.201 389.552 149.313 389.552 149.43C389.552 149.546 389.506 149.658 389.424 149.74C389.341 149.823 389.23 149.869 389.114 149.869Z" fill="#292A2E"/>
<path d="M347.591 173.632H255.804C255.687 173.632 255.576 173.586 255.494 173.503C255.412 173.421 255.365 173.309 255.365 173.193C255.365 173.076 255.412 172.965 255.494 172.882C255.576 172.8 255.687 172.754 255.804 172.754H347.591C347.707 172.754 347.819 172.8 347.901 172.882C347.983 172.965 348.029 173.076 348.029 173.193C348.029 173.309 347.983 173.421 347.901 173.503C347.819 173.586 347.707 173.632 347.591 173.632Z" fill="#367CFF"/>
<path d="M374.609 173.632H357.077C356.961 173.632 356.849 173.586 356.767 173.503C356.685 173.421 356.639 173.309 356.639 173.193C356.639 173.076 356.685 172.965 356.767 172.882C356.849 172.8 356.961 172.754 357.077 172.754H374.609C374.725 172.754 374.837 172.8 374.919 172.882C375.001 172.965 375.047 173.076 375.047 173.193C375.047 173.309 375.001 173.421 374.919 173.503C374.837 173.586 374.725 173.632 374.609 173.632Z" fill="#292A2E"/>
<path d="M265.67 165.711H255.804C255.745 165.713 255.686 165.703 255.631 165.682C255.576 165.661 255.526 165.629 255.483 165.588C255.441 165.547 255.407 165.498 255.384 165.444C255.361 165.389 255.349 165.331 255.349 165.272C255.349 165.213 255.361 165.154 255.384 165.1C255.407 165.046 255.441 164.997 255.483 164.956C255.526 164.915 255.576 164.883 255.631 164.862C255.686 164.841 255.745 164.831 255.804 164.833H265.67C265.729 164.831 265.787 164.841 265.842 164.862C265.897 164.883 265.947 164.915 265.99 164.956C266.032 164.997 266.066 165.046 266.089 165.1C266.112 165.154 266.124 165.213 266.124 165.272C266.124 165.331 266.112 165.389 266.089 165.444C266.066 165.498 266.032 165.547 265.99 165.588C265.947 165.629 265.897 165.661 265.842 165.682C265.787 165.703 265.729 165.713 265.67 165.711Z" fill="#367CFF"/>
<path d="M342.41 165.711H275.154C275.095 165.713 275.037 165.703 274.982 165.682C274.927 165.661 274.877 165.629 274.834 165.588C274.792 165.547 274.758 165.498 274.735 165.444C274.712 165.389 274.7 165.331 274.7 165.272C274.7 165.213 274.712 165.154 274.735 165.1C274.758 165.046 274.792 164.997 274.834 164.956C274.877 164.915 274.927 164.883 274.982 164.862C275.037 164.841 275.095 164.831 275.154 164.833H342.41C342.469 164.831 342.528 164.841 342.583 164.862C342.638 164.883 342.688 164.915 342.73 164.956C342.773 164.997 342.806 165.046 342.83 165.1C342.853 165.154 342.864 165.213 342.864 165.272C342.864 165.331 342.853 165.389 342.83 165.444C342.806 165.498 342.773 165.547 342.73 165.588C342.688 165.629 342.638 165.661 342.583 165.682C342.528 165.703 342.469 165.713 342.41 165.711Z" fill="#292A2E"/>
<path d="M389.114 165.711H352.962C352.903 165.713 352.845 165.703 352.79 165.682C352.735 165.661 352.684 165.629 352.642 165.588C352.6 165.547 352.566 165.498 352.543 165.444C352.52 165.389 352.508 165.331 352.508 165.272C352.508 165.213 352.52 165.154 352.543 165.1C352.566 165.046 352.6 164.997 352.642 164.956C352.684 164.915 352.735 164.883 352.79 164.862C352.845 164.841 352.903 164.831 352.962 164.833H389.114C389.173 164.831 389.231 164.841 389.286 164.862C389.341 164.883 389.391 164.915 389.434 164.956C389.476 164.997 389.51 165.046 389.533 165.1C389.556 165.154 389.568 165.213 389.568 165.272C389.568 165.331 389.556 165.389 389.533 165.444C389.51 165.498 389.476 165.547 389.434 165.588C389.391 165.629 389.341 165.661 389.286 165.682C389.231 165.703 389.173 165.713 389.114 165.711Z" fill="#0CBC8B"/>
<path d="M321.306 181.553H255.804C255.687 181.553 255.576 181.507 255.494 181.425C255.412 181.342 255.365 181.231 255.365 181.114C255.365 180.998 255.412 180.886 255.494 180.804C255.576 180.721 255.687 180.675 255.804 180.675H321.306C321.422 180.675 321.533 180.721 321.615 180.804C321.698 180.886 321.744 180.998 321.744 181.114C321.744 181.231 321.698 181.342 321.615 181.425C321.533 181.507 321.422 181.553 321.306 181.553Z" fill="#0CBC8B"/>
<path d="M351.172 181.553H330.791C330.675 181.553 330.564 181.507 330.481 181.425C330.399 181.342 330.353 181.231 330.353 181.114C330.353 180.998 330.399 180.886 330.481 180.804C330.564 180.721 330.675 180.675 330.791 180.675H351.172C351.288 180.675 351.4 180.721 351.482 180.804C351.564 180.886 351.61 180.998 351.61 181.114C351.61 181.231 351.564 181.342 351.482 181.425C351.4 181.507 351.288 181.553 351.172 181.553Z" fill="#292A2E"/>
<path d="M389.037 181.553H359.895C359.778 181.553 359.667 181.507 359.585 181.425C359.503 181.342 359.456 181.231 359.456 181.114C359.456 180.998 359.503 180.886 359.585 180.804C359.667 180.721 359.778 180.675 359.895 180.675H389.037C389.153 180.675 389.264 180.721 389.347 180.804C389.429 180.886 389.475 180.998 389.475 181.114C389.475 181.231 389.429 181.342 389.347 181.425C389.264 181.507 389.153 181.553 389.037 181.553H389.037Z" fill="#367CFF"/>
<path d="M225.877 185.88C225.82 185.88 225.763 185.869 225.71 185.847C225.656 185.825 225.608 185.792 225.567 185.752C225.527 185.711 225.494 185.663 225.472 185.609C225.45 185.556 225.439 185.499 225.439 185.441V64.7523C225.439 64.6358 225.485 64.5241 225.567 64.4418C225.65 64.3594 225.761 64.3131 225.877 64.3131C225.993 64.3131 226.105 64.3594 226.187 64.4418C226.269 64.5241 226.315 64.6358 226.315 64.7523V185.441C226.315 185.499 226.304 185.556 226.282 185.609C226.26 185.663 226.228 185.711 226.187 185.752C226.146 185.792 226.098 185.825 226.045 185.847C225.992 185.869 225.935 185.88 225.877 185.88Z" fill="#292A2E"/>
<path d="M205.84 70.2365H186.866C186.75 70.2365 186.638 70.1902 186.556 70.1078C186.474 70.0255 186.428 69.9138 186.428 69.7973C186.428 69.6808 186.474 69.5691 186.556 69.4867C186.638 69.4044 186.75 69.3581 186.866 69.3581H205.838C205.954 69.3581 206.065 69.4044 206.148 69.4867C206.23 69.5691 206.276 69.6808 206.276 69.7973C206.276 69.9138 206.23 70.0255 206.148 70.1078C206.065 70.1902 205.954 70.2365 205.838 70.2365H205.84Z" fill="#292A2E"/>
<path d="M200.125 78.8968H186.866C186.807 78.899 186.748 78.8892 186.693 78.8681C186.638 78.8471 186.588 78.8151 186.546 78.7741C186.503 78.7332 186.47 78.684 186.447 78.6297C186.424 78.5754 186.412 78.5169 186.412 78.4579C186.412 78.3989 186.424 78.3405 186.447 78.2861C186.47 78.2318 186.503 78.1827 186.546 78.1417C186.588 78.1008 186.638 78.0688 186.693 78.0477C186.748 78.0266 186.807 78.0169 186.866 78.019H200.123C200.236 78.0232 200.344 78.0713 200.422 78.1531C200.501 78.235 200.545 78.3442 200.545 78.4579C200.545 78.5716 200.501 78.6809 200.422 78.7627C200.344 78.8446 200.236 78.8926 200.123 78.8968H200.125Z" fill="#292A2E"/>
<path d="M211.783 87.5577H186.866C186.75 87.5577 186.638 87.5115 186.556 87.4291C186.474 87.3468 186.428 87.235 186.428 87.1186C186.428 87.0021 186.474 86.8904 186.556 86.808C186.638 86.7256 186.75 86.6794 186.866 86.6794H211.78C211.896 86.6794 212.008 86.7256 212.09 86.808C212.172 86.8904 212.218 87.0021 212.218 87.1186C212.218 87.235 212.172 87.3468 212.09 87.4291C212.008 87.5115 211.896 87.5577 211.78 87.5577H211.783Z" fill="#292A2E"/>
<path d="M216.43 96.2181H195.63C195.572 96.2203 195.513 96.2105 195.458 96.1894C195.403 96.1684 195.353 96.1364 195.31 96.0954C195.268 96.0544 195.234 96.0053 195.211 95.951C195.188 95.8967 195.176 95.8382 195.176 95.7792C195.176 95.7202 195.188 95.6618 195.211 95.6074C195.234 95.5531 195.268 95.504 195.31 95.463C195.353 95.422 195.403 95.3901 195.458 95.369C195.513 95.3479 195.572 95.3382 195.63 95.3403H216.43C216.489 95.3382 216.547 95.3479 216.602 95.369C216.657 95.3901 216.708 95.422 216.75 95.463C216.792 95.504 216.826 95.5531 216.849 95.6074C216.872 95.6618 216.884 95.7202 216.884 95.7792C216.884 95.8382 216.872 95.8967 216.849 95.951C216.826 96.0053 216.792 96.0544 216.75 96.0954C216.708 96.1364 216.657 96.1684 216.602 96.1894C216.547 96.2105 216.489 96.2203 216.43 96.2181Z" fill="#292A2E"/>
<path d="M206.373 104.879H195.63C195.514 104.879 195.403 104.833 195.321 104.75C195.238 104.668 195.192 104.556 195.192 104.44C195.192 104.323 195.238 104.212 195.321 104.129C195.403 104.047 195.514 104.001 195.63 104.001H206.373C206.489 104.001 206.601 104.047 206.683 104.129C206.765 104.212 206.811 104.323 206.811 104.44C206.811 104.556 206.765 104.668 206.683 104.75C206.601 104.833 206.489 104.879 206.373 104.879Z" fill="#292A2E"/>
<path d="M214.6 113.54H195.63C195.514 113.54 195.403 113.494 195.321 113.411C195.238 113.329 195.192 113.217 195.192 113.101C195.192 112.984 195.238 112.873 195.321 112.79C195.403 112.708 195.514 112.662 195.63 112.662H214.6C214.716 112.662 214.828 112.708 214.91 112.79C214.992 112.873 215.038 112.984 215.038 113.101C215.038 113.217 214.992 113.329 214.91 113.411C214.828 113.494 214.716 113.54 214.6 113.54Z" fill="#292A2E"/>
<path d="M201.497 122.2H186.866C186.75 122.2 186.638 122.154 186.556 122.072C186.474 121.989 186.428 121.878 186.428 121.761C186.428 121.645 186.474 121.533 186.556 121.451C186.638 121.368 186.75 121.322 186.866 121.322H201.494C201.61 121.322 201.722 121.368 201.804 121.451C201.886 121.533 201.932 121.645 201.932 121.761C201.932 121.878 201.886 121.989 201.804 122.072C201.722 122.154 201.61 122.2 201.494 122.2H201.497Z" fill="#292A2E"/>
<path d="M196.468 130.861H186.866C186.75 130.861 186.638 130.815 186.556 130.733C186.474 130.65 186.428 130.539 186.428 130.422C186.428 130.306 186.474 130.194 186.556 130.112C186.638 130.029 186.75 129.983 186.866 129.983H196.465C196.582 129.983 196.693 130.029 196.775 130.112C196.857 130.194 196.904 130.306 196.904 130.422C196.904 130.539 196.857 130.65 196.775 130.733C196.693 130.815 196.582 130.861 196.465 130.861H196.468Z" fill="#292A2E"/>
<path d="M234.949 68.379V68.5372L240.426 70.5743C240.504 70.6062 240.571 70.661 240.618 70.7315C240.664 70.802 240.689 70.8849 240.688 70.9696V71.119C240.689 71.1851 240.674 71.2505 240.643 71.3088C240.612 71.3672 240.566 71.4167 240.511 71.4527C240.455 71.4918 240.391 71.5164 240.324 71.524C240.256 71.5317 240.188 71.5222 240.125 71.4965L233.94 69.0724C233.862 69.0416 233.796 68.9884 233.749 68.9195C233.702 68.8507 233.677 68.7693 233.677 68.686V68.2385C233.676 68.1549 233.701 68.0731 233.748 68.004C233.795 67.9349 233.862 67.8819 233.94 67.8521L240.125 65.4221C240.176 65.4046 240.229 65.3956 240.283 65.3954C240.364 65.3972 240.443 65.4216 240.511 65.4659C240.567 65.5036 240.612 65.5547 240.643 65.6146C240.674 65.6744 240.69 65.7411 240.688 65.8085V65.9573C240.69 66.0411 240.666 66.1233 240.619 66.1926C240.572 66.2619 240.504 66.3147 240.426 66.3437L234.949 68.379Z" fill="#367CFF"/>
<path d="M245.805 63.628L242.528 73.6829C242.502 73.767 242.449 73.8404 242.379 73.8925C242.308 73.9446 242.222 73.9727 242.134 73.9728C242.07 73.9738 242.007 73.9591 241.951 73.9299C241.894 73.9008 241.846 73.8581 241.809 73.8056C241.77 73.7537 241.744 73.6934 241.732 73.6295C241.719 73.5655 241.722 73.4997 241.74 73.437L245.016 63.3909C245.045 63.3058 245.099 63.2315 245.171 63.1785C245.243 63.1254 245.33 63.0961 245.42 63.0946C245.483 63.0945 245.545 63.1096 245.602 63.1387C245.658 63.1678 245.707 63.21 245.744 63.2617C245.782 63.3133 245.808 63.3736 245.819 63.4373C245.83 63.5011 245.825 63.5665 245.805 63.628Z" fill="#367CFF"/>
<path d="M253.852 68.2385V68.686C253.853 68.7685 253.829 68.8495 253.784 68.9184C253.739 68.9873 253.674 69.041 253.598 69.0724L247.403 71.4965C247.342 71.5219 247.275 71.5313 247.209 71.5236C247.143 71.5159 247.08 71.4915 247.026 71.4526C246.97 71.4168 246.924 71.3675 246.892 71.3092C246.86 71.2509 246.843 71.1855 246.842 71.119V70.9696C246.841 70.8836 246.867 70.7993 246.916 70.7285C246.964 70.6577 247.034 70.6038 247.114 70.5743L252.59 68.5372V68.379L247.114 66.3413C247.034 66.3146 246.964 66.2626 246.915 66.193C246.866 66.1235 246.84 66.04 246.842 65.9549V65.8061C246.843 65.7383 246.86 65.6716 246.892 65.6119C246.924 65.5522 246.97 65.5012 247.026 65.4635C247.094 65.4193 247.173 65.3949 247.254 65.393C247.305 65.3924 247.355 65.4015 247.403 65.4197L253.598 67.8497C253.675 67.8803 253.741 67.9342 253.786 68.0038C253.832 68.0734 253.855 68.1554 253.852 68.2385Z" fill="#367CFF"/>
<path d="M28.8241 348.602C25.2516 348.602 21.7322 347.736 18.5653 346.079C15.3984 344.422 12.6778 342.023 10.635 339.085C8.59229 336.148 7.28783 332.759 6.83271 329.208C6.37759 325.657 6.78526 322.048 8.02105 318.688C9.2753 315.277 41.447 232.041 47.05 217.576L85.7656 240.157C82.6173 248.291 71.2078 279.123 62.0419 303.96L77.2697 302.301L82.0596 342.936L31.2232 348.472C30.4264 348.559 29.6255 348.602 28.8241 348.602Z" fill="#367CFF"/>
<path d="M155.458 200.269C155.322 200.251 151.597 214.304 122.52 212.117C102.391 210.606 97.4826 196.873 97.0213 196.873C99.1916 196.411 102.716 195.931 103.68 195.415C106.85 193.708 109.158 191.63 110.321 187.171C111.23 183.683 111.693 170.258 111.693 163.523L142.667 170.498C142.236 178.097 139.214 195.711 149.805 198.829C151.567 199.342 153.466 199.816 155.458 200.269Z" fill="#E98862"/>
<path d="M141.595 185.434C129.385 186.4 113.699 181.232 110.719 164.903L108.03 150.17C105.051 133.842 111.192 119.037 126.532 116.225C141.871 113.413 155.752 124.548 158.731 140.876L159.922 147.4C161.065 153.664 163.382 183.711 141.595 185.434Z" fill="#E98862"/>
<path d="M83.794 199.131C72.821 199.947 61.6321 201.137 53.5578 208.63C43.8337 217.653 42.0715 228.747 48.2753 259.279C53.6128 285.55 51.4952 297.03 55.0663 345.507C55.1716 346.934 55.3969 349.888 55.3969 349.888L172.78 349.693C172.78 349.693 183.779 285.377 189.851 255.712C194.469 233.16 206.599 205.782 155.456 200.264C155.324 200.25 114.308 196.862 83.794 199.131Z" fill="#367CFF"/>
<path d="M55.3993 350.185C55.3228 350.185 55.2492 350.156 55.1941 350.103C55.1389 350.049 55.1065 349.977 55.1036 349.9L51.4248 254.196C51.4233 254.157 51.4295 254.118 51.443 254.082C51.4565 254.045 51.477 254.012 51.5034 253.983C51.5298 253.955 51.5616 253.931 51.5969 253.915C51.6323 253.899 51.6704 253.89 51.7093 253.888C51.7485 253.885 51.7879 253.89 51.825 253.903C51.8622 253.916 51.8962 253.937 51.9251 253.964C51.9539 253.99 51.9769 254.023 51.9926 254.059C52.0083 254.095 52.0163 254.134 52.0162 254.173L55.695 349.878C55.6978 349.956 55.6695 350.033 55.6161 350.09C55.5628 350.148 55.4888 350.182 55.4105 350.185L55.3993 350.185Z" fill="#0C0C0C"/>
<path d="M243.754 233.301L252.001 214.76C252.182 214.353 252.446 213.988 252.775 213.688C253.105 213.389 253.493 213.161 253.916 213.02C254.338 212.88 254.785 212.828 255.228 212.87C255.671 212.912 256.1 213.045 256.489 213.263C257.195 213.686 257.718 214.357 257.958 215.146C258.198 215.934 258.137 216.784 257.787 217.53L256.019 221.506L267.305 211.562C268.541 210.436 270.777 209.843 271.947 211.315C272.435 211.852 272.726 212.539 272.774 213.264C272.822 213.988 272.623 214.708 272.211 215.304C272.224 215.313 272.237 215.323 272.248 215.335C272.255 215.345 272.261 215.356 272.267 215.367L274.172 213.629C274.525 213.307 274.945 213.068 275.402 212.93C275.859 212.791 276.341 212.757 276.813 212.829C277.285 212.901 277.734 213.077 278.13 213.345C278.525 213.614 278.855 213.967 279.097 214.379C279.465 215.036 279.596 215.8 279.469 216.543C279.342 217.285 278.964 217.962 278.399 218.459L277.588 219.199C277.598 219.232 277.603 219.267 277.601 219.302C278.265 218.93 279.039 218.806 279.785 218.953C280.531 219.1 281.201 219.509 281.675 220.105C282.173 220.773 282.402 221.605 282.316 222.435C282.23 223.265 281.835 224.032 281.209 224.582L279.196 226.42C279.242 226.414 279.29 226.419 279.334 226.435C279.378 226.452 279.418 226.478 279.45 226.513C279.486 226.556 279.509 226.608 279.515 226.664C280.198 226.497 280.917 226.559 281.561 226.841C282.205 227.123 282.739 227.609 283.08 228.225C283.426 228.879 283.541 229.631 283.407 230.359C283.273 231.087 282.898 231.749 282.342 232.236L265.349 247.742C262.972 249.911 260.002 251.319 256.822 251.786C253.641 252.252 250.393 251.756 247.495 250.361C244.996 249.158 243.064 247.026 242.109 244.418C241.154 241.81 241.251 238.931 242.379 236.393L243.754 233.301Z" fill="#E98862"/>
<g opacity="0.2">
<path d="M261.085 225.201C261.137 225.258 261.21 225.292 261.288 225.296C261.365 225.3 261.441 225.273 261.499 225.222L272.221 215.751C272.28 215.699 272.315 215.626 272.32 215.547C272.325 215.469 272.299 215.392 272.247 215.333C272.195 215.274 272.122 215.238 272.044 215.233C271.965 215.228 271.888 215.254 271.829 215.306L261.108 224.777C261.079 224.803 261.055 224.834 261.038 224.869C261.021 224.904 261.011 224.942 261.008 224.98C261.006 225.019 261.011 225.058 261.024 225.095C261.036 225.132 261.056 225.166 261.081 225.195L261.085 225.201Z" fill="#0C0C0C"/>
</g>
<g opacity="0.2">
<path d="M265.122 230.055C265.175 230.112 265.247 230.146 265.325 230.15C265.402 230.154 265.478 230.128 265.536 230.076L277.501 219.507C277.531 219.481 277.554 219.45 277.571 219.415C277.588 219.38 277.598 219.342 277.601 219.303C277.603 219.265 277.598 219.226 277.585 219.189C277.573 219.152 277.553 219.118 277.527 219.089C277.474 219.032 277.401 218.998 277.324 218.993C277.246 218.988 277.17 219.013 277.11 219.062L265.145 229.631C265.115 229.657 265.092 229.688 265.075 229.723C265.058 229.758 265.047 229.796 265.045 229.835C265.043 229.874 265.048 229.913 265.061 229.95C265.073 229.987 265.093 230.021 265.119 230.05L265.122 230.055Z" fill="#0C0C0C"/>
</g>
<g opacity="0.2">
<path d="M269.464 235.338C269.517 235.395 269.59 235.429 269.667 235.433C269.744 235.437 269.82 235.411 269.878 235.359L279.423 226.928C279.481 226.876 279.517 226.803 279.522 226.724C279.527 226.646 279.501 226.569 279.449 226.51C279.397 226.451 279.324 226.415 279.245 226.41C279.167 226.405 279.09 226.432 279.031 226.484L269.487 234.915C269.458 234.94 269.434 234.972 269.417 235.007C269.4 235.042 269.39 235.08 269.387 235.119C269.385 235.157 269.39 235.196 269.403 235.233C269.415 235.27 269.435 235.304 269.461 235.333L269.464 235.338Z" fill="#0C0C0C"/>
</g>
<path d="M152.916 168.698C150.813 158.108 149.848 151.043 149.959 143.589C152.92 138.382 152.142 132.406 151.469 129.823C152.317 130.308 153.205 130.72 154.123 131.054C154.55 131.203 155.01 131.227 155.45 131.122C155.89 131.018 156.29 130.79 156.605 130.465C156.92 130.14 157.136 129.732 157.227 129.289C157.319 128.845 157.282 128.385 157.121 127.961C154.829 122.013 148.938 110.454 136.775 106.581C133.714 105.387 125.894 103.879 115.518 105.305C106.69 106.519 86.7041 114.913 83.5954 139.466V139.48C83.4925 140.294 79.6292 161.139 75.4637 171.993C69.8642 186.585 62.0023 191.119 62.2016 207.953C62.4582 229.609 102.177 232.491 126.138 230.871C150.1 229.252 163.471 221.356 163.644 205.75C163.832 188.262 157.121 189.886 152.916 168.698Z" fill="#0A0A0A"/>
<path d="M152.923 161.189C148.261 162.044 143.57 157.738 142.718 153.066C141.866 148.394 143.99 143.589 149.958 143.589L152.923 161.189Z" fill="#E98862"/>
<path d="M203.064 345.241C198.375 345.24 193.807 343.75 190.015 340.985C186.223 338.221 183.403 334.323 181.958 329.852L151.149 234.349L193.348 220.673L209.551 270.906L237.553 226.273L275.101 249.936L221.831 334.845C219.835 338.027 217.066 340.649 213.784 342.467C210.502 344.285 206.814 345.239 203.064 345.241Z" fill="#367CFF"/>
<path d="M178.202 318.869C178.184 318.87 178.166 318.868 178.148 318.865C178.071 318.85 178.002 318.806 177.958 318.741C177.914 318.676 177.897 318.596 177.911 318.519L188.385 261.538C188.392 261.499 188.406 261.463 188.427 261.43C188.448 261.397 188.476 261.369 188.508 261.347C188.54 261.325 188.576 261.309 188.614 261.301C188.652 261.293 188.691 261.293 188.729 261.3C188.767 261.307 188.804 261.321 188.836 261.342C188.869 261.364 188.897 261.391 188.919 261.423C188.941 261.455 188.957 261.491 188.965 261.529C188.973 261.567 188.974 261.607 188.967 261.645L178.493 318.629C178.48 318.697 178.444 318.758 178.391 318.802C178.338 318.845 178.271 318.869 178.202 318.869Z" fill="#0C0C0C"/>
<path d="M213.321 284.354C213.255 284.354 213.192 284.333 213.14 284.292C213.088 284.252 213.051 284.196 213.034 284.133L209.545 270.663C209.526 270.587 209.537 270.506 209.577 270.439C209.617 270.371 209.682 270.322 209.757 270.302C209.833 270.282 209.914 270.294 209.982 270.333C210.049 270.373 210.098 270.438 210.118 270.514L213.607 283.984C213.618 284.028 213.619 284.074 213.61 284.118C213.601 284.162 213.582 284.204 213.554 284.24C213.526 284.275 213.491 284.304 213.45 284.324C213.41 284.344 213.365 284.354 213.32 284.354H213.321Z" fill="#0C0C0C"/>
<path d="M450.679 282.096H335.067C334.343 282.096 333.628 281.942 332.968 281.644C332.308 281.347 331.719 280.913 331.239 280.371C330.759 279.828 330.399 279.19 330.183 278.498C329.967 277.806 329.899 277.076 329.985 276.356L333.079 250.484C333.228 249.238 333.827 248.09 334.763 247.258C335.7 246.425 336.908 245.965 338.16 245.965H450.679C452.036 245.966 453.338 246.506 454.297 247.468C455.257 248.43 455.796 249.734 455.796 251.094V276.967C455.796 278.327 455.257 279.632 454.297 280.593C453.338 281.555 452.036 282.095 450.679 282.096Z" fill="#292A2E"/>
<path d="M366.34 282.339L371.284 263.322C371.393 262.904 371.414 262.468 371.346 262.042C371.277 261.615 371.121 261.208 370.886 260.846C370.652 260.483 370.345 260.174 369.984 259.937C369.624 259.7 369.218 259.541 368.793 259.47C365.275 258.804 364.846 263.661 364.181 265.989L361.642 251.633C361.255 247.76 356.06 247.633 355.676 251.492C355.648 251.487 355.62 251.492 355.595 251.505C355.718 244.452 347.927 244.998 349.261 251.179C349.233 251.198 349.208 251.222 349.188 251.249C347.887 247.83 342.555 249.43 343.275 253.056L343.689 255.664C343.664 255.638 343.634 255.617 343.601 255.602C343.568 255.587 343.532 255.579 343.496 255.579C343.46 255.578 343.424 255.584 343.39 255.597C343.356 255.61 343.326 255.63 343.3 255.655C341.511 253.117 337.125 254.979 337.8 258.157L341.3 280.176C343.301 294.417 364.211 299.196 366.34 282.339Z" fill="#E98862"/>
<g opacity="0.2">
<path d="M358.12 265.713C357.352 265.64 355.708 252.241 355.4 251.822C355.387 251.747 355.404 251.67 355.448 251.608C355.492 251.546 355.558 251.503 355.633 251.49C355.708 251.477 355.785 251.494 355.847 251.538C355.909 251.582 355.951 251.648 355.964 251.723L358.357 265.379C358.364 265.417 358.363 265.455 358.354 265.492C358.346 265.53 358.33 265.565 358.308 265.596C358.286 265.627 358.258 265.653 358.226 265.673C358.194 265.693 358.158 265.706 358.12 265.713Z" fill="#0C0C0C"/>
</g>
<g opacity="0.2">
<path d="M352.138 266.938C352.063 266.949 351.988 266.931 351.927 266.886C351.866 266.842 351.825 266.775 351.813 266.701L349.138 251.461C349.125 251.386 349.143 251.309 349.186 251.246C349.23 251.184 349.296 251.142 349.371 251.128C350.156 251.057 352.064 266.282 352.377 266.602C352.384 266.64 352.383 266.679 352.375 266.717C352.367 266.754 352.351 266.79 352.329 266.821C352.306 266.852 352.278 266.879 352.245 266.899C352.212 266.919 352.176 266.932 352.138 266.938Z" fill="#0C0C0C"/>
</g>
<g opacity="0.2">
<path d="M345.668 268.303C345.594 268.314 345.518 268.296 345.458 268.251C345.397 268.207 345.356 268.14 345.344 268.066L343.21 255.909C343.2 255.835 343.218 255.76 343.262 255.7C343.306 255.639 343.371 255.599 343.444 255.586C343.517 255.573 343.593 255.589 343.654 255.631C343.716 255.673 343.759 255.737 343.774 255.81L345.908 267.967C345.915 268.004 345.914 268.043 345.906 268.081C345.897 268.119 345.882 268.154 345.859 268.186C345.837 268.217 345.809 268.244 345.776 268.264C345.743 268.284 345.707 268.297 345.668 268.303Z" fill="#0C0C0C"/>
</g>
<path d="M190.592 350.185H53.1581L44.4239 282.927C44.2486 281.578 44.3626 280.206 44.7581 278.904C45.1537 277.602 45.8218 276.4 46.7178 275.377C47.6139 274.355 48.7172 273.535 49.9542 272.974C51.1912 272.413 52.5335 272.123 53.8913 272.122H172.06C174.38 272.122 176.62 272.967 178.363 274.501C180.107 276.034 181.234 278.151 181.534 280.456L190.592 350.185Z" fill="white"/>
<path d="M182.249 280.367C181.923 277.888 180.71 275.613 178.836 273.962C176.962 272.312 174.555 271.399 172.06 271.393H53.8913C52.5933 271.395 51.3071 271.642 50.1008 272.122C49.5905 272.324 49.0979 272.568 48.6283 272.851C46.9067 273.88 45.523 275.391 44.6477 277.198C43.7724 279.006 43.4438 281.03 43.7024 283.022L52.4307 350.185H53.8913L45.1453 282.839C44.9831 281.592 45.0881 280.324 45.4534 279.121C45.8186 277.918 46.4357 276.807 47.2634 275.862C48.0911 274.916 49.1105 274.159 50.2534 273.64C51.3963 273.121 52.6366 272.852 53.8913 272.851H172.06C174.202 272.857 176.268 273.64 177.877 275.056C179.486 276.471 180.529 278.423 180.812 280.55L189.86 350.185H191.327L182.249 280.367Z" fill="#292A2E"/>
<path d="M182.575 350.185H45.1394L36.4052 282.927C36.2296 281.578 36.3434 280.206 36.7388 278.904C37.1343 277.602 37.8024 276.399 38.6985 275.377C39.5946 274.354 40.698 273.535 41.9352 272.974C43.1723 272.412 44.5147 272.122 45.8727 272.122H164.04C166.359 272.123 168.598 272.968 170.34 274.502C172.082 276.035 173.208 278.152 173.508 280.456L182.575 350.185Z" fill="#292A2E"/>
<path d="M174.231 280.367C174.029 278.822 173.48 277.343 172.626 276.041C171.772 274.74 170.634 273.649 169.299 272.851C168.829 272.569 168.336 272.325 167.826 272.122C166.622 271.642 165.338 271.394 164.042 271.393H45.8727C44.4111 271.393 42.9661 271.705 41.6345 272.309C40.3028 272.913 39.1151 273.794 38.1506 274.895C37.1862 275.996 36.4672 277.29 36.0418 278.692C35.6164 280.093 35.4943 281.569 35.6837 283.022L44.4061 350.185H45.8727L37.1266 282.839C36.9644 281.592 37.0694 280.324 37.4347 279.121C37.7999 277.918 38.417 276.807 39.2447 275.862C40.0724 274.916 41.0918 274.159 42.2347 273.64C43.3776 273.121 44.6179 272.852 45.8727 272.851H164.04C166.181 272.857 168.248 273.64 169.857 275.056C171.466 276.471 172.509 278.423 172.792 280.55L181.84 350.185H183.306L174.231 280.367Z" fill="#292A2E"/>
<path d="M415.855 203.205C415.99 203.187 417.495 228.211 446.499 226.029C466.579 224.521 473.739 203.17 474.199 203.17C472.034 202.709 468.388 202.038 467.427 201.523C464.265 199.821 459.761 198.049 458.742 191.895C458.155 188.348 459.151 170.203 458.844 166.613L428.614 173.508C429.044 181.088 432.059 198.659 421.494 201.768C419.739 202.284 417.843 202.758 415.855 203.205Z" fill="#E98862"/>
<path d="M429.464 185.33C441.637 186.272 457.262 181.095 460.204 164.815L462.859 150.126C465.801 133.846 459.654 119.101 444.361 116.324C429.068 113.548 415.252 124.67 412.31 140.949L411.134 147.452C410.77 149.692 410.558 151.954 410.5 154.223C410.303 160.218 410.027 169.337 412.984 176.034C415.781 182.36 421.69 184.728 429.464 185.33Z" fill="#E98862"/>
<path d="M456.762 115.49C451.93 113.98 446.918 113.125 441.86 112.949C441.369 111.014 440.277 109.511 438.671 108.881C435.997 107.834 432.73 109.52 430.557 112.77C429.348 110.914 427.711 109.241 425.541 108.562C419.554 106.693 419.256 115.313 419.256 115.313C419.256 115.313 409.764 105.925 409.467 117.899C409.108 132.387 411.763 136.636 413.702 137.709C417.529 139.827 420.379 139.469 421.894 142.586C426.48 152.023 421.985 178.606 427.292 181.934C435.423 187.031 452.077 187.209 457.487 186.822C459.567 186.672 461.514 184.256 462.39 182.359C465.219 176.235 471.529 162.352 473.284 156.611C476.525 146.017 476.281 121.878 456.762 115.49Z" fill="#0C0C0C"/>
<path d="M423.658 172.44C428.354 171.929 431.615 166.48 431.105 161.772C430.596 157.063 426.508 154.885 421.812 155.395L419.734 158.812L419.621 172.877L423.658 172.44Z" fill="#E98862"/>
<path d="M502.095 346.261L502.241 346.269C502.241 346.269 502.136 343.459 502.095 346.261Z" fill="#333333"/>
<path d="M374.159 258.574C375.076 269.368 379.535 336.712 380.416 350.008H501.89C502.576 338.016 505.657 285.583 508.259 262.13C510.743 239.753 515.617 228.55 512.044 221.934C506.207 211.122 490.256 204.874 479.379 203.399C472.737 202.498 471.369 201.852 468.662 201.852H421.892C417.445 201.852 389.043 206.146 383.221 210.437C367.109 222.312 372.213 235.699 374.159 258.574Z" fill="#367CFF"/>
<path d="M527.826 349.303C531.399 349.303 534.919 348.437 538.086 346.78C541.254 345.124 543.975 342.724 546.018 339.786C548.061 336.848 549.366 333.459 549.821 329.907C550.276 326.355 549.868 322.746 548.631 319.386C547.376 315.975 517.955 237.891 512.355 223.421L470.882 240.264C474.031 248.398 485.441 279.233 494.608 304.072L479.379 302.413L474.585 346.608L525.426 349.172C526.223 349.259 527.024 349.303 527.826 349.303Z" fill="#367CFF"/>
<path d="M504.157 262.584L501.172 349.997L501.98 350.025L504.964 262.611L504.157 262.584Z" fill="#0C0C0C"/>
<path d="M356.587 349.303C353.014 349.303 349.494 348.437 346.327 346.78C343.159 345.123 340.438 342.724 338.395 339.786C336.352 336.848 335.048 333.459 334.593 329.907C334.138 326.355 334.546 322.746 335.782 319.386C337.037 315.975 367.69 237.546 373.291 223.078L413.531 240.265C410.382 248.4 398.971 279.235 389.805 304.074L405.034 302.415L409.827 346.61L358.987 349.174C358.19 349.26 357.389 349.303 356.587 349.303Z" fill="#367CFF"/>
<path d="M389.71 298.892C389.64 298.892 389.571 298.876 389.509 298.844C389.447 298.813 389.393 298.767 389.352 298.71C389.311 298.654 389.283 298.589 389.272 298.52C389.261 298.451 389.266 298.38 389.288 298.313L400.054 264.339C400.071 264.282 400.098 264.228 400.135 264.182C400.173 264.136 400.219 264.097 400.271 264.069C400.323 264.041 400.381 264.024 400.44 264.018C400.499 264.013 400.558 264.019 400.615 264.037C400.671 264.055 400.724 264.085 400.769 264.123C400.814 264.162 400.851 264.209 400.877 264.262C400.904 264.316 400.919 264.374 400.923 264.433C400.927 264.492 400.919 264.552 400.899 264.608L390.133 298.579C390.105 298.669 390.049 298.749 389.973 298.805C389.896 298.862 389.804 298.892 389.71 298.892Z" fill="#0C0C0C"/>
<path d="M527.684 282.927L518.944 350.185H381.514L390.574 280.456C390.874 278.152 392 276.036 393.742 274.502C395.484 272.969 397.723 272.123 400.042 272.122H518.211C519.569 272.122 520.912 272.411 522.15 272.972C523.388 273.533 524.492 274.352 525.388 275.375C526.285 276.398 526.953 277.6 527.349 278.903C527.745 280.205 527.859 281.577 527.684 282.927Z" fill="white"/>
<path d="M525.933 274.896C525.227 274.09 524.399 273.401 523.48 272.851C523.008 272.568 522.514 272.324 522.001 272.122C520.795 271.642 519.509 271.395 518.211 271.393H400.042C397.548 271.4 395.141 272.313 393.267 273.963C391.393 275.613 390.18 277.889 389.853 280.367L380.781 350.185H382.248L391.295 280.55C391.576 278.424 392.618 276.471 394.226 275.055C395.835 273.639 397.901 272.856 400.042 272.851H518.211C519.466 272.853 520.706 273.122 521.849 273.641C522.992 274.16 524.011 274.917 524.839 275.862C525.667 276.807 526.285 277.918 526.651 279.121C527.017 280.324 527.124 281.592 526.963 282.839L518.211 350.185H519.677L528.4 283.022C528.589 281.57 528.467 280.094 528.042 278.692C527.616 277.291 526.897 275.997 525.933 274.896Z" fill="#292A2E"/>
<path d="M535.702 282.927L526.963 350.185H389.533L398.593 280.456C398.81 278.788 399.461 277.207 400.482 275.872C401.502 274.537 402.856 273.495 404.406 272.851C405.564 272.367 406.806 272.12 408.06 272.122H526.235C527.593 272.123 528.935 272.413 530.172 272.975C531.409 273.536 532.512 274.355 533.408 275.378C534.304 276.4 534.972 277.603 535.368 278.904C535.763 280.206 535.877 281.578 535.702 282.927Z" fill="#292A2E"/>
<path d="M533.952 274.896C532.987 273.797 531.8 272.916 530.47 272.312C529.139 271.708 527.696 271.395 526.235 271.393H408.06C406.211 271.396 404.396 271.9 402.809 272.851C401.473 273.649 400.334 274.739 399.479 276.041C398.624 277.343 398.074 278.822 397.872 280.367L388.8 350.185H390.266L399.314 280.55C399.595 278.424 400.636 276.471 402.245 275.055C403.853 273.639 405.919 272.856 408.06 272.851H526.235C527.49 272.852 528.73 273.121 529.873 273.64C531.016 274.159 532.035 274.916 532.863 275.861C533.691 276.807 534.308 277.918 534.673 279.121C535.038 280.324 535.143 281.592 534.981 282.839L526.235 350.185H527.696L536.424 283.022C536.611 281.569 536.488 280.093 536.061 278.692C535.635 277.291 534.916 275.997 533.952 274.896Z" fill="#292A2E"/>
<path d="M7.06661 350.601H547.215C547.325 350.601 547.43 350.558 547.508 350.48C547.586 350.402 547.629 350.297 547.629 350.187C547.629 350.076 547.586 349.971 547.508 349.893C547.43 349.815 547.325 349.772 547.215 349.772H7.06661C6.95683 349.772 6.85154 349.815 6.77391 349.893C6.69628 349.971 6.65267 350.076 6.65267 350.187C6.65267 350.297 6.69628 350.402 6.77391 350.48C6.85154 350.558 6.95683 350.601 7.06661 350.601Z" fill="#292A2E"/>
<g opacity="0.65">
<path d="M7.06661 350.601H547.215C547.325 350.601 547.43 350.558 547.508 350.48C547.586 350.402 547.629 350.297 547.629 350.187C547.629 350.076 547.586 349.971 547.508 349.893C547.43 349.815 547.325 349.772 547.215 349.772H7.06661C6.95683 349.772 6.85154 349.815 6.77391 349.893C6.69628 349.971 6.65267 350.076 6.65267 350.187C6.65267 350.297 6.69628 350.402 6.77391 350.48C6.85154 350.558 6.95683 350.601 7.06661 350.601Z" fill="#292A2E"/>
</g>
<path d="M334.413 327.436L336.315 277.323L362.585 275.93L364.975 327.436H334.413Z" fill="#367CFF"/>
</g>
<defs>
<clipPath id="clip0_75_198">
<rect width="550" height="350.601" fill="white"/>
</clipPath>
</defs>
</svg>
