<svg width="193" height="24" viewBox="0 0 193 24" fill="none" xmlns="http://www.w3.org/2000/svg">
<path fill-rule="evenodd" clip-rule="evenodd" d="M17.9281 19.3173C12.8789 20.6263 9.29511 21.9259 7.18908 23.0985C5.0177 24.3075 2.27734 23.5274 1.06834 21.356C-0.140675 19.1846 0.639486 16.4442 2.81087 15.2352C5.9396 13.4932 10.4189 11.9665 15.6696 10.6053C20.9978 9.22399 27.4126 7.94083 34.5908 6.78164C48.952 4.4625 66.5771 2.60654 85.0862 1.47577C121.971 -0.77762 162.99 -0.189783 188.901 5.62285C191.326 6.16685 192.851 8.5737 192.307 10.9987C191.763 13.4237 189.356 14.9486 186.931 14.4046C162.31 8.88154 122.34 8.2166 85.635 10.459C67.3489 11.5762 50.0284 13.4053 36.0256 15.6665C29.0217 16.7976 22.8997 18.0285 17.9281 19.3173Z" fill="url(#paint0_linear_328_2867)"/>
<defs>
<linearGradient id="paint0_linear_328_2867" x1="-58.2961" y1="14.495" x2="395.213" y2="-36.7311" gradientUnits="userSpaceOnUse">
<stop stop-color="#FFF278"/>
<stop offset="1" stop-color="#F28D2F"/>
</linearGradient>
</defs>
</svg>
